<?xml version="1.0" encoding="UTF-8"?>
<svg width="50px" height="50px" viewBox="0 0 50 50" version="1.1" xmlns="http://www.w3.org/2000/svg" xmlns:xlink="http://www.w3.org/1999/xlink">
    <!-- Generator: Sketch 43.2 (39069) - http://www.bohemiancoding.com/sketch -->
    <title>Artboard</title>
    <desc>Created with Sketch.</desc>
    <defs></defs>
    <g id="Page-1" stroke="none" stroke-width="1" fill="none" fill-rule="evenodd">
        <g id="Artboard" fill-rule="nonzero" fill="#FFFFFF">
            <g id="if_43-twitter_104461">
                <path d="M24.6,0.2 C11,0.2 -7.10542736e-15,11.2 -7.10542736e-15,24.8 C-7.10542736e-15,38.4 11,49.4 24.6,49.4 C38.2,49.4 49.2,38.4 49.2,24.8 C49.2,11.2 38.2,0.2 24.6,0.2 Z M37,19.8 L37,20.6 C37,28.8 30.8,38.3 19.3,38.3 C15.8,38.3 12.5,37.3 9.8,35.5 C10.3,35.6 10.8,35.6 11.3,35.6 C14.2,35.6 16.9,34.6 19,32.9 C16.3,32.8 14,31.1 13.2,28.6 C13.6,28.7 14,28.7 14.4,28.7 C15,28.7 15.5,28.6 16,28.5 C13.2,27.9 11,25.4 11,22.4 L11,22.3 C11.8,22.8 12.8,23 13.8,23.1 C12.1,22 11,20.1 11,17.9 C11,16.8 11.3,15.7 11.8,14.8 C14.9,18.6 19.4,21 24.6,21.3 C24.5,20.8 24.4,20.4 24.4,19.9 C24.4,16.5 27.2,13.7 30.6,13.7 C32.4,13.7 34,14.5 35.1,15.7 C36.5,15.4 37.8,14.9 39,14.2 C38.5,15.7 37.6,16.9 36.3,17.6 C37.6,17.5 38.8,17.1 39.9,16.6 C39.2,17.8 38.2,18.9 37,19.8 Z" id="Shape"></path>
            </g>
        </g>
    </g>
</svg>