<?xml version="1.0" encoding="UTF-8"?>
<svg width="50px" height="50px" viewBox="0 0 50 50" version="1.1" xmlns="http://www.w3.org/2000/svg" xmlns:xlink="http://www.w3.org/1999/xlink">
    <!-- Generator: Sketch 43.2 (39069) - http://www.bohemiancoding.com/sketch -->
    <title>Artboard</title>
    <desc>Created with Sketch.</desc>
    <defs></defs>
    <g id="Page-1" stroke="none" stroke-width="1" fill="none" fill-rule="evenodd">
        <g id="Artboard" fill-rule="nonzero" fill="#FFFFFF">
            <g id="if_58-youtube_104445">
                <polygon id="Shape" points="14.5 27 16.3 27 16.3 35.9 18 35.9 18 27 19.8 27 19.8 25.5 14.5 25.5"></polygon>
                <path d="M25.1,19.7 C25.3,19.7 25.5,19.6 25.7,19.5 C25.8,19.4 25.9,19.2 25.9,19 L25.9,14.4 C25.9,14.2 25.8,14.1 25.7,14 C25.6,13.9 25.4,13.8 25.1,13.8 C24.9,13.8 24.7,13.9 24.6,14 C24.5,14.1 24.4,14.3 24.4,14.4 L24.4,19 C24.4,19.2 24.5,19.4 24.6,19.5 C24.7,19.6 24.9,19.7 25.1,19.7 Z" id="Shape"></path>
                <path d="M28.9,28.1 C28.7,28.1 28.4,28.2 28.2,28.3 C28,28.4 27.8,28.6 27.5,28.8 L27.5,25.5 L26,25.5 L26,35.9 L27.5,35.9 L27.5,35.3 C27.7,35.5 27.9,35.7 28.2,35.8 C28.4,35.9 28.7,36 29,36 C29.5,36 29.8,35.9 30,35.6 C30.2,35.3 30.4,34.9 30.4,34.4 L30.4,30.2 C30.4,29.6 30.3,29.1 30,28.8 C29.8,28.3 29.4,28.1 28.9,28.1 Z M28.8,34.1 C28.8,34.3 28.8,34.5 28.7,34.6 C28.6,34.7 28.5,34.8 28.3,34.8 C28.2,34.8 28.1,34.8 27.9,34.7 C27.8,34.6 27.7,34.6 27.5,34.4 L27.5,29.6 C27.6,29.5 27.7,29.4 27.8,29.4 C27.9,29.3 28,29.3 28.1,29.3 C28.3,29.3 28.5,29.4 28.6,29.5 C28.7,29.6 28.8,29.8 28.8,30.1 L28.8,34.1 L28.8,34.1 Z" id="Shape"></path>
                <path d="M23.3,34 C23.2,34.2 23,34.3 22.8,34.4 C22.6,34.5 22.5,34.6 22.4,34.6 C22.3,34.6 22.2,34.6 22.1,34.5 C22,34.4 22,34.3 22,34.1 L22,28.2 L20.5,28.2 L20.5,34.6 C20.5,35.1 20.6,35.4 20.8,35.6 C21,35.8 21.2,35.9 21.6,35.9 C21.9,35.9 22.2,35.8 22.5,35.7 C22.8,35.5 23.1,35.3 23.4,35 L23.4,35.8 L24.9,35.8 L24.9,28.2 L23.4,28.2 L23.3,34 L23.3,34 Z" id="Shape"></path>
                <path d="M25,0.3 C11.4,0.3 0.4,11.3 0.4,24.9 C0.4,38.5 11.4,49.5 25,49.5 C38.6,49.5 49.6,38.5 49.6,24.9 C49.7,11.4 38.6,0.3 25,0.3 Z M29,12.5 L30.7,12.5 L30.7,19 C30.7,19.2 30.7,19.3 30.8,19.4 C30.9,19.5 31,19.5 31.1,19.5 C31.2,19.5 31.4,19.4 31.6,19.3 C31.8,19.2 32,19 32.1,18.8 L32.1,12.4 L33.8,12.4 L33.8,20.8 L32.1,20.8 L32.1,20 C31.8,20.3 31.5,20.6 31.1,20.8 C30.8,21 30.4,21.1 30.1,21.1 C29.7,21.1 29.4,21 29.2,20.7 C29.1,20.4 29,20 29,19.5 L29,12.5 Z M22.6,14.4 C22.6,13.8 22.8,13.2 23.3,12.8 C23.8,12.4 24.4,12.2 25.2,12.2 C25.9,12.2 26.5,12.4 27,12.8 C27.5,13.2 27.7,13.7 27.7,14.4 L27.7,18.8 C27.7,19.5 27.5,20.1 27,20.5 C26.6,20.9 25.9,21.1 25.2,21.1 C24.4,21.1 23.8,20.9 23.4,20.5 C22.9,20.1 22.7,19.5 22.7,18.8 L22.6,14.4 L22.6,14.4 Z M17.9,9.5 L19.2,14.1 L19.3,14.1 L20.5,9.5 L22.5,9.5 L20.2,16.2 L20.2,20.9 L18.3,20.9 L18.3,16.4 L16,9.5 L17.9,9.5 Z M40.5,33.5 C40.5,36.5 38,39 35,39 L15.8,39 C12.8,39 10.3,36.5 10.3,33.5 L10.3,29.1 C10.3,26.1 12.8,23.6 15.8,23.6 L35,23.6 C38,23.6 40.5,26.1 40.5,29.1 L40.5,33.5 Z" id="Shape"></path>
                <path d="M33.5,28 C32.8,28 32.3,28.2 31.8,28.6 C31.4,29 31.1,29.6 31.1,30.2 L31.1,33.6 C31.1,34.3 31.3,34.9 31.7,35.3 C32.1,35.7 32.6,35.9 33.3,35.9 C34.1,35.9 34.6,35.7 35,35.3 C35.4,34.9 35.6,34.3 35.6,33.5 L35.6,33.1 L34,33.1 L34,33.4 C34,33.9 33.9,34.1 33.8,34.3 C33.7,34.5 33.5,34.5 33.3,34.5 C33.1,34.5 32.9,34.4 32.8,34.3 C32.7,34.1 32.7,33.9 32.7,33.5 L32.7,32.1 L35.6,32.1 L35.6,30.1 C35.6,29.4 35.4,28.8 35,28.4 C34.8,28.2 34.2,28 33.5,28 Z M34.1,31.1 L32.8,31.1 L32.8,30.3 C32.8,30 32.8,29.7 33,29.6 C33.1,29.5 33.3,29.4 33.5,29.4 C33.7,29.4 33.9,29.5 34,29.6 C34.1,29.7 34.2,30 34.2,30.3 L34.1,31.1 L34.1,31.1 Z" id="Shape"></path>
            </g>
        </g>
    </g>
</svg>