<?xml version="1.0" encoding="UTF-8"?>
<svg width="36px" height="36px" viewBox="0 0 36 36" version="1.1" xmlns="http://www.w3.org/2000/svg" xmlns:xlink="http://www.w3.org/1999/xlink">
    <!-- Generator: Sketch 43.2 (39069) - http://www.bohemiancoding.com/sketch -->
    <title>icon-social-instagram</title>
    <desc>Created with Sketch.</desc>
    <defs>
        <polygon id="path-1" points="1 34.9959524 34.9892738 34.9959524 34.9892738 1.01072619 1 1.01072619"></polygon>
    </defs>
    <g id="Page-1" stroke="none" stroke-width="1" fill="none" fill-rule="evenodd">
        <g id="icon-social-instagram">
            <mask id="mask-2" fill="white">
                <use xlink:href="#path-1"></use>
            </mask>
            <g id="Clip-2"></g>
            <path d="M17.9946706,1.01072619 C13.3791706,1.01072619 12.8004286,1.03028968 10.9877698,1.11299603 C9.17888889,1.1955 7.9434881,1.48281349 6.86250397,1.90295635 C5.74495635,2.33719841 4.79720635,2.91830159 3.85235714,3.86308333 C2.9075754,4.80793254 2.32647222,5.75568254 1.89223016,6.87323016 C1.4720873,7.95421429 1.18477381,9.18961508 1.10226984,10.998496 C1.01956349,12.8111548 1,13.3898968 1,18.0053968 C1,22.6208294 1.01956349,23.1995714 1.10226984,25.0122302 C1.18477381,26.8211111 1.4720873,28.0565119 1.89223016,29.137496 C2.32647222,30.2550437 2.9075754,31.2027937 3.85235714,32.1476429 C4.79720635,33.0924246 5.74495635,33.6735278 6.86250397,34.1078373 C7.9434881,34.5279127 9.17888889,34.8152262 10.9877698,34.8977302 C12.8004286,34.9804365 13.3791706,35 17.9946706,35 C22.6101032,35 23.1888452,34.9804365 25.001504,34.8977302 C26.8103849,34.8152262 28.0457857,34.5279127 29.1267698,34.1078373 C30.2443175,33.6735278 31.1920675,33.0924246 32.1369167,32.1476429 C33.0816984,31.2027937 33.6628016,30.2550437 34.0971111,29.137496 C34.5171865,28.0565119 34.8045,26.8211111 34.887004,25.0122302 C34.9697103,23.1995714 34.9892738,22.6208294 34.9892738,18.0053968 C34.9892738,13.3898968 34.9697103,12.8111548 34.887004,10.998496 C34.8045,9.18961508 34.5171865,7.95421429 34.0971111,6.87323016 C33.6628016,5.75568254 33.0816984,4.80793254 32.1369167,3.86308333 C31.1920675,2.91830159 30.2443175,2.33719841 29.1267698,1.90295635 C28.0457857,1.48281349 26.8103849,1.1955 25.001504,1.11299603 C23.1888452,1.03028968 22.6101032,1.01072619 17.9946706,1.01072619 Z M17.9946706,4.07281746 C22.5323889,4.07281746 23.0699127,4.09015476 24.8619286,4.17191667 C26.5188889,4.24747222 27.4187421,4.52432937 28.0175873,4.75706746 C28.8108532,5.06536111 29.3769802,5.43362698 29.9716429,6.02835714 C30.566373,6.62301984 30.9346389,7.18914683 31.2429325,7.9824127 C31.4756706,8.58125794 31.7525278,9.48111111 31.8280833,11.1380714 C31.9098452,12.9300873 31.9271825,13.4676111 31.9271825,18.0053968 C31.9271825,22.5431151 31.9098452,23.0806389 31.8280833,24.8726548 C31.7525278,26.5296151 31.4756706,27.4294683 31.2429325,28.0283135 C30.9346389,28.8215794 30.566373,29.3877063 29.9716429,29.982369 C29.3769802,30.5770992 28.8108532,30.9453651 28.0175873,31.2536587 C27.4187421,31.4863968 26.5188889,31.763254 24.8619286,31.8388095 C23.0701825,31.9205714 22.5327262,31.9379087 17.9946706,31.9379087 C13.4565476,31.9379087 12.9191587,31.9205714 11.1273452,31.8388095 C9.47038492,31.763254 8.57053175,31.4863968 7.97168651,31.2536587 C7.17842063,30.9453651 6.61229365,30.5770992 6.01763095,29.982369 C5.42296825,29.3877063 5.05463492,28.8215794 4.74634127,28.0283135 C4.51360317,27.4294683 4.23674603,26.5296151 4.16119048,24.8726548 C4.07942857,23.0806389 4.06209127,22.5431151 4.06209127,18.0053968 C4.06209127,13.4676111 4.07942857,12.9300873 4.16119048,11.1380714 C4.23674603,9.48111111 4.51360317,8.58125794 4.74634127,7.9824127 C5.05463492,7.18914683 5.42290079,6.62301984 6.01763095,6.02835714 C6.61229365,5.43362698 7.17842063,5.06536111 7.97168651,4.75706746 C8.57053175,4.52432937 9.47038492,4.24747222 11.1273452,4.17191667 C12.9193611,4.09015476 13.4568849,4.07281746 17.9946706,4.07281746 L17.9946706,4.07281746 Z" id="Fill-1" fill="#000000" mask="url(#mask-2)"></path>
            <path d="M17.9946706,23.6702421 C14.865996,23.6702421 12.3297579,21.134004 12.3297579,18.0053968 C12.3297579,14.8767222 14.865996,12.3404841 17.9946706,12.3404841 C21.1232778,12.3404841 23.6595159,14.8767222 23.6595159,18.0053968 C23.6595159,21.134004 21.1232778,23.6702421 17.9946706,23.6702421 Z M17.9946706,9.27839286 C13.1748333,9.27839286 9.26766667,13.1855595 9.26766667,18.0053968 C9.26766667,22.8251667 13.1748333,26.7323333 17.9946706,26.7323333 C22.8144405,26.7323333 26.7216071,22.8251667 26.7216071,18.0053968 C26.7216071,13.1855595 22.8144405,9.27839286 17.9946706,9.27839286 L17.9946706,9.27839286 Z" id="Fill-4" fill="#000000" mask="url(#mask-2)"></path>
            <path d="M29.1057897,8.93360317 C29.1057897,10.0599206 28.1927143,10.9729286 27.0663968,10.9729286 C25.9401468,10.9729286 25.0270714,10.0599206 25.0270714,8.93360317 C25.0270714,7.80728571 25.9401468,6.89421032 27.0663968,6.89421032 C28.1927143,6.89421032 29.1057897,7.80728571 29.1057897,8.93360317" id="Fill-5" fill="#000000" mask="url(#mask-2)"></path>
        </g>
    </g>
</svg>