<?xml version="1.0" encoding="UTF-8"?>
<svg width="50px" height="50px" viewBox="0 0 50 50" version="1.1" xmlns="http://www.w3.org/2000/svg" xmlns:xlink="http://www.w3.org/1999/xlink">
    <!-- Generator: Sketch 43.2 (39069) - http://www.bohemiancoding.com/sketch -->
    <title>Artboard</title>
    <desc>Created with Sketch.</desc>
    <defs></defs>
    <g id="Page-1" stroke="none" stroke-width="1" fill="none" fill-rule="evenodd">
        <g id="Artboard" fill-rule="nonzero" fill="#FFFFFF">
            <g id="if_51-linkedin_104452">
                <path d="M24.7,0.2 C11.1,0.2 0.1,11.2 0.1,24.8 C0.1,38.4 11.1,49.4 24.7,49.4 C38.3,49.4 49.3,38.4 49.3,24.8 C49.3,11.2 38.3,0.2 24.7,0.2 Z M38.4,36.7 C38.4,37.8 37.5,38.7 36.4,38.7 L13,38.7 C11.9,38.7 11,37.8 11,36.7 L11,13.1 C11,12 11.9,11.1 13,11.1 L36.4,11.1 C37.5,11.1 38.4,12 38.4,13.1 L38.4,36.7 L38.4,36.7 Z" id="Shape"></path>
                <path d="M29.5,21.4 C27.3,21.4 26.3,22.6 25.8,23.5 L25.8,23.5 L25.8,23.5 L25.8,23.5 L25.8,21.7 L21.6,21.7 C21.7,22.9 21.6,34.2 21.6,34.2 L25.8,34.2 L25.8,27.2 C25.8,26.8 25.8,26.5 25.9,26.2 C26.2,25.5 26.9,24.7 28,24.7 C29.5,24.7 30.1,25.8 30.1,27.5 L30.1,34.2 L34.3,34.2 L34.3,27 C34.3,23.2 32.2,21.4 29.5,21.4 Z" id="Shape"></path>
                <path d="M17.2,15.7 C15.8,15.7 14.9,16.6 14.9,17.9 C14.9,19.1 15.8,20.1 17.2,20.1 L17.2,20.1 C18.6,20.1 19.5,19.1 19.5,17.9 C19.5,16.6 18.7,15.7 17.2,15.7 Z" id="Shape"></path>
                <rect id="Rectangle-path" x="15.1" y="21.7" width="4.2" height="12.5"></rect>
            </g>
        </g>
    </g>
</svg>