<?xml version="1.0" encoding="UTF-8"?>
<svg width="36px" height="36px" viewBox="0 0 36 36" version="1.1" xmlns="http://www.w3.org/2000/svg" xmlns:xlink="http://www.w3.org/1999/xlink">
    <!-- Generator: Sketch 43.2 (39069) - http://www.bohemiancoding.com/sketch -->
    <title>icon-social-twitter</title>
    <desc>Created with Sketch.</desc>
    <defs></defs>
    <g id="Page-1" stroke="none" stroke-width="1" fill="none" fill-rule="evenodd">
        <g id="icon-social-twitter" fill-rule="nonzero" fill="#000000">
            <g id="Logo__x2014__FIXED" transform="translate(1.000000, 3.000000)">
                <path d="M10.6896,27.945098 C23.5144,27.945098 30.532,17.2117647 30.532,7.91960784 C30.532,7.61764706 30.532,7.31568627 30.5184,7.01372549 C31.8784,6.0254902 33.0616,4.77647059 34,3.3627451 C32.7488,3.9254902 31.4024,4.29607843 29.988,4.4745098 C31.4296,3.60980392 32.5312,2.22352941 33.0616,0.576470588 C31.7152,1.38627451 30.2192,1.9627451 28.628,2.27843137 C27.3496,0.905882353 25.5408,0.0549019608 23.5416,0.0549019608 C19.6928,0.0549019608 16.5648,3.21176471 16.5648,7.09607843 C16.5648,7.64509804 16.6328,8.18039216 16.7416,8.70196078 C10.948,8.41372549 5.8072,5.6 2.3664,1.34509804 C1.768,2.38823529 1.428,3.59607843 1.428,4.88627451 C1.428,7.32941176 2.6656,9.48431373 4.5288,10.7470588 C3.3864,10.7058824 2.312,10.3901961 1.3736,9.86862745 L1.3736,9.96470588 C1.3736,13.3686275 3.7808,16.2235294 6.9632,16.8686275 C6.3784,17.0333333 5.7664,17.1156863 5.1272,17.1156863 C4.6784,17.1156863 4.2432,17.0745098 3.8216,16.9921569 C4.7056,19.7921569 7.2896,21.8235294 10.336,21.8784314 C7.9424,23.772549 4.9368,24.8980392 1.6728,24.8980392 C1.1152,24.8980392 0.5576,24.8705882 0.0136,24.8019608 C3.0872,26.7784314 6.7592,27.945098 10.6896,27.945098" id="Shape"></path>
            </g>
        </g>
    </g>
</svg>