<?xml version="1.0" encoding="UTF-8"?>
<svg width="50px" height="50px" viewBox="0 0 50 50" version="1.1" xmlns="http://www.w3.org/2000/svg" xmlns:xlink="http://www.w3.org/1999/xlink">
    <!-- Generator: Sketch 43.2 (39069) - http://www.bohemiancoding.com/sketch -->
    <title>Artboard</title>
    <desc>Created with Sketch.</desc>
    <defs></defs>
    <g id="Page-1" stroke="none" stroke-width="1" fill="none" fill-rule="evenodd">
        <g id="Artboard" fill-rule="nonzero" fill="#FFFFFF">
            <g id="icon-facebook">
                <path d="M24.9,0.7 C11.3,0.7 0.3,11.7 0.3,25.3 C0.3,38.9 11.3,49.9 24.9,49.9 C38.5,49.9 49.5,38.9 49.5,25.3 C49.5,11.7 38.5,0.7 24.9,0.7 Z M31.4,25.2 L27.1,25.2 L27.1,40.4 L20.8,40.4 L20.8,25.2 L17.8,25.2 L17.8,19.8 L20.8,19.8 L20.8,16.3 C20.8,13.8 22,9.9 27.2,9.9 L31.9,9.9 L31.9,15.1 L28.5,15.1 C27.9,15.1 27.2,15.4 27.2,16.6 L27.2,19.8 L32,19.8 L31.4,25.2 Z" id="Shape"></path>
            </g>
        </g>
    </g>
</svg>