<?xml version="1.0" encoding="UTF-8"?>
<svg width="36px" height="36px" viewBox="0 0 36 36" version="1.1" xmlns="http://www.w3.org/2000/svg" xmlns:xlink="http://www.w3.org/1999/xlink">
    <!-- Generator: Sketch 43.2 (39069) - http://www.bohemiancoding.com/sketch -->
    <title>icon-social-youtube</title>
    <desc>Created with Sketch.</desc>
    <defs></defs>
    <g id="Page-1" stroke="none" stroke-width="1" fill="none" fill-rule="evenodd">
        <g id="icon-social-youtube" fill="#000000">
            <path d="M14.5227273,22.6029009 L14.5227273,12.7472529 L23.4090909,17.6752652 L14.5227273,22.6029009 Z M34.2894773,9.64620185 C33.8984773,8.21092062 32.7463409,7.08069785 31.2835682,6.69711508 C28.6321477,6 18,6 18,6 C18,6 7.36785227,6 4.71643182,6.69711508 C3.25365909,7.08069785 2.10152273,8.21092062 1.71052273,9.64620185 C1,12.2474843 1,17.6750769 1,17.6750769 C1,17.6750769 1,23.1024812 1.71052273,25.703952 C2.10152273,27.1392332 3.25365909,28.269456 4.71643182,28.6532271 C7.36785227,29.3501538 18,29.3501538 18,29.3501538 C18,29.3501538 28.6321477,29.3501538 31.2835682,28.6532271 C32.7463409,28.269456 33.8984773,27.1392332 34.2894773,25.703952 C35,23.1024812 35,17.6750769 35,17.6750769 C35,17.6750769 35,12.2474843 34.2894773,9.64620185 L34.2894773,9.64620185 Z" id="Fill-1"></path>
        </g>
    </g>
</svg>