<?xml version="1.0" encoding="UTF-8"?>
<svg width="50px" height="50px" viewBox="0 0 50 50" version="1.1" xmlns="http://www.w3.org/2000/svg" xmlns:xlink="http://www.w3.org/1999/xlink">
    <!-- Generator: Sketch 43.2 (39069) - http://www.bohemiancoding.com/sketch -->
    <title>icon-instagram</title>
    <desc>Created with Sketch.</desc>
    <defs></defs>
    <g id="Page-1" stroke="none" stroke-width="1" fill="none" fill-rule="evenodd">
        <g id="icon-instagram" fill-rule="nonzero" fill="#FFFFFF">
            <path d="M24.7,0.2 C38.3,0.2 49.3,11.2 49.3,24.8 C49.3,38.4 38.3,49.4 24.7,49.4 C11.1,49.4 0.1,38.4 0.1,24.8 C0.1,11.2 11.1,0.2 24.7,0.2 Z M24.9940386,8.57401529 C20.5313485,8.57401529 19.9717674,8.59293107 18.2191221,8.67289918 C16.4701296,8.75267161 15.2756304,9.03047273 14.2304355,9.4367055 C13.1498876,9.85657069 12.2335157,10.4184347 11.3199485,11.3319366 C10.4064466,12.2455038 9.84458259,13.1618757 9.42471741,14.2424236 C9.01848463,15.2876185 8.74068351,16.4821177 8.66091108,18.2311102 C8.58094297,19.9837555 8.56202719,20.5433366 8.56202719,25.0060267 C8.56202719,29.4686515 8.58094297,30.0282326 8.66091108,31.7808779 C8.74068351,33.5298704 9.01848463,34.7243696 9.42471741,35.7695645 C9.84458259,36.8501124 10.4064466,37.7664843 11.3199485,38.6800515 C12.2335157,39.5935534 13.1498876,40.1554174 14.2304355,40.5753478 C15.2756304,40.9815154 16.4701296,41.2593165 18.2191221,41.3390889 C19.9717674,41.419057 20.5313485,41.4379728 24.9940386,41.4379728 C29.4566634,41.4379728 30.0162445,41.419057 31.7688898,41.3390889 C33.5178823,41.2593165 34.7123815,40.9815154 35.7575764,40.5753478 C36.8381243,40.1554174 37.7544962,39.5935534 38.6680634,38.6800515 C39.5815653,37.7664843 40.1434293,36.8501124 40.5633597,35.7695645 C40.9695273,34.7243696 41.2473284,33.5298704 41.3271008,31.7808779 C41.4070689,30.0282326 41.4259847,29.4686515 41.4259847,25.0060267 C41.4259847,20.5433366 41.4070689,19.9837555 41.3271008,18.2311102 C41.2473284,16.4821177 40.9695273,15.2876185 40.5633597,14.2424236 C40.1434293,13.1618757 39.5815653,12.2455038 38.6680634,11.3319366 C37.7544962,10.4184347 36.8381243,9.85657069 35.7575764,9.4367055 C34.7123815,9.03047273 33.5178823,8.75267161 31.7688898,8.67289918 C30.0162445,8.59293107 29.4566634,8.57401529 24.9940386,8.57401529 Z M24.9940386,11.5347269 C29.3815221,11.5347269 29.9012496,11.5514902 31.6339354,11.6305451 C33.2360372,11.7035992 34.106098,11.9712901 34.6851167,12.1963228 C35.4521191,12.4944094 35.9995028,12.8504828 36.5744774,13.4255226 C37.1495172,14.0004972 37.5055906,14.5478809 37.8036772,15.3148833 C38.0287099,15.893902 38.2964008,16.7639628 38.3694549,18.3660646 C38.4485098,20.0987504 38.4652731,20.6184779 38.4652731,25.0060267 C38.4652731,29.3935102 38.4485098,29.9132377 38.3694549,31.6459235 C38.2964008,33.2480252 38.0287099,34.1180861 37.8036772,34.6971048 C37.5055906,35.4641072 37.1495172,36.0114909 36.5744774,36.5864655 C35.9995028,37.1615053 35.4521191,37.5175787 34.6851167,37.8156653 C34.106098,38.0406979 33.2360372,38.3083889 31.6339354,38.381443 C29.9015105,38.4604979 29.3818483,38.4772612 24.9940386,38.4772612 C20.6061636,38.4772612 20.0865666,38.4604979 18.3540765,38.381443 C16.7519748,38.3083889 15.8819139,38.0406979 15.3028952,37.8156653 C14.5358928,37.5175787 13.9885091,37.1615053 13.4135345,36.5864655 C12.8385599,36.0114909 12.4824213,35.4641072 12.1843347,34.6971048 C11.9593021,34.1180861 11.6916111,33.2480252 11.618557,31.6459235 C11.5395021,29.9132377 11.5227388,29.3935102 11.5227388,25.0060267 C11.5227388,20.6184779 11.5395021,20.0987504 11.618557,18.3660646 C11.6916111,16.7639628 11.9593021,15.893902 12.1843347,15.3148833 C12.4824213,14.5478809 12.8384947,14.0004972 13.4135345,13.4255226 C13.9885091,12.8504828 14.5358928,12.4944094 15.3028952,12.1963228 C15.8819139,11.9712901 16.7519748,11.7035992 18.3540765,11.6305451 C20.0867623,11.5514902 20.6064898,11.5347269 24.9940386,11.5347269 Z M35.7372909,16.2345818 C35.7372909,15.1455544 34.8544456,14.2627091 33.7654182,14.2627091 C32.6764561,14.2627091 31.7936108,15.1455544 31.7936108,16.2345818 C31.7936108,17.3236092 32.6764561,18.2063892 33.7654182,18.2063892 C34.8544456,18.2063892 35.7372909,17.3236092 35.7372909,16.2345818 Z M24.9940386,30.4833203 C21.9689481,30.4833203 19.5166797,28.0310519 19.5166797,25.0060267 C19.5166797,21.9809362 21.9689481,19.5286678 24.9940386,19.5286678 C28.0190638,19.5286678 30.4713322,21.9809362 30.4713322,25.0060267 C30.4713322,28.0310519 28.0190638,30.4833203 24.9940386,30.4833203 Z M24.9940386,16.5679562 C20.3337764,16.5679562 16.5559681,20.3457644 16.5559681,25.0060267 C16.5559681,29.6662236 20.3337764,33.4440319 24.9940386,33.4440319 C29.6542356,33.4440319 33.4320438,29.6662236 33.4320438,25.0060267 C33.4320438,20.3457644 29.6542356,16.5679562 24.9940386,16.5679562 L24.9940386,16.5679562 Z" id="Shape"></path>
        </g>
    </g>
</svg>