<svg xmlns="http://www.w3.org/2000/svg" viewBox="0 0 628.94 249.81"><defs><style>.cls-1{fill:#fff;}</style></defs><title>Asset 1</title><g id="Layer_2" data-name="Layer 2"><g id="Capa_1" data-name="Capa 1"><polygon class="cls-1" points="224.86 190.21 224.87 120.44 211.53 120.44 211.53 190.21 224.86 190.21"/><path class="cls-1" d="M270.2,165.58c0,8.8-5.29,16-11.62,16s-11.62-7.16-11.62-16c0-8.64,5.26-15.83,11.62-15.83s11.62,7.19,11.62,15.83m13.12,0c0-14.68-10.68-25.9-24.74-25.9s-24.74,11.22-24.74,25.9,10.67,26,24.74,26,24.74-11.22,24.74-26"/><path class="cls-1" d="M329.25,144.44a29,29,0,0,0-10.77-4.11,40.06,40.06,0,0,0-8.16-1c-11.94,0-20,6.25-20,15.44,0,6.55,4,11.2,12.72,14.48l8.45,3.26c3.36,1.28,5,3,5,5.18,0,2.65-2.83,4.26-7.72,4.26a17.62,17.62,0,0,1-5.49-1c-3.61-1.18-5.6-2.12-10.56-5.18l-4,10.24c5.43,2.74,7.64,3.6,12.16,4.56a40.35,40.35,0,0,0,8,.94c11.85,0,19.68-5.92,19.68-14.92,0-4.32-2-8.77-5.08-10.88-2.22-1.69-9.31-4.85-14.81-6.78-4.43-1.56-6.12-2.93-6.12-5.16,0-2.76,3.15-4.67,8-4.67a23.07,23.07,0,0,1,11.32,3.4c1,.53,2.08,1.27,3.35,2.12Z"/><path class="cls-1" d="M399.09,161.67H382.92l8-25.24Zm23,28.54-25.25-69.77H384.94l-25.26,69.77h14L379.32,173H402.7l5.51,17.24Z"/><path class="cls-1" d="M472.85,190.21V154.06c0-9.28-4.42-13.95-13.28-13.95-6.28,0-11.14,2.64-17.06,9.08v-8.14H429.84v49.16h12.67V160.64l1.7-1.82c5.48-5.92,8.77-6.15,11.43-6s4.53-.3,4.53,5.82v31.6Z"/><path class="cls-1" d="M516.81,173.83c-3,4.76-7,7.41-10.87,7.41-6,0-10.14-6.22-10.14-15.12,0-9.3,5.17-16.18,12.15-16.18,3.91,0,7.4,1.9,8.25,4.55a27.21,27.21,0,0,1,.61,6.33Zm12.62,16.38V116.77l-12.62,3.63v22.66a14.19,14.19,0,0,0-6.54-2.95,15.43,15.43,0,0,0-4.33-.52c-13,0-23.46,12.25-23.46,27.49,0,14.16,8.54,24.52,20.18,24.52a16.85,16.85,0,0,0,9.2-2.76c2.32-1.47,3.16-2.43,4.95-5.27v6.64Z"/><path class="cls-1" d="M571,159.67H551.79c1.05-6.65,4.83-10.48,10.48-10.48,5.89,0,8.43,3,8.76,10.48m12.68,25.79-4.66-9.6c-4.51,2.86-6.45,3.79-9.41,4.65a19.53,19.53,0,0,1-5.81.86,12.75,12.75,0,0,1-11-5.94c-1.17-2-1.49-3.7-1.69-7.83h32.56v-5.39c0-13.3-8.45-22.53-20.6-22.53-14.09,0-24.64,11.73-24.64,27.29,0,15,9.2,24.63,23.8,24.63a38.5,38.5,0,0,0,16.16-3.5c1.17-.52,3-1.36,5.28-2.64"/><path class="cls-1" d="M628.94,144.44a29.09,29.09,0,0,0-10.79-4.11,40.13,40.13,0,0,0-8.16-1c-12,0-20,6.25-20,15.44,0,6.55,4,11.2,12.7,14.48l8.44,3.26c3.4,1.28,5,3,5,5.18,0,2.65-2.87,4.26-7.71,4.26a17.69,17.69,0,0,1-5.51-1c-3.58-1.18-5.6-2.12-10.56-5.18l-4,10.24c5.4,2.74,7.63,3.6,12.16,4.56a40.36,40.36,0,0,0,8,.94c11.84,0,19.64-5.92,19.64-14.92,0-4.32-2-8.77-5.06-10.88-2.23-1.69-9.3-4.85-14.8-6.78-4.43-1.56-6.14-2.93-6.14-5.16,0-2.76,3.17-4.67,8-4.67a22.86,22.86,0,0,1,11.32,3.4c1,.53,2.12,1.27,3.37,2.12Z"/><path class="cls-1" d="M238,83.19V60.24h-4.25V81.87c0,4.27-.3,5.46-2,7.29a9.41,9.41,0,0,1-7.21,3,9.28,9.28,0,0,1-7.13-3c-1.68-1.83-2-3-2-7.29V60.24h-4.25V83.19c0,4.46,1.13,7.21,4,9.56a15.64,15.64,0,0,0,18.88,0c2.85-2.35,3.93-5,3.93-9.56"/><path class="cls-1" d="M266.88,94.93V77.3c0-4.41-2-6.56-6.17-6.56a9.85,9.85,0,0,0-6.3,2.35,20.09,20.09,0,0,0-3.22,3.23v-5h-3.92V94.93h3.92V80.53c4.1-4.54,6.65-6.29,9-6.29a2.54,2.54,0,0,1,2.4,1.24,6.63,6.63,0,0,1,.37,2.76V94.93Z"/><path class="cls-1" d="M279.51,71.36h-3.9V94.93h3.9Zm.64-8.22a2.55,2.55,0,1,0-2.55,2.57,2.55,2.55,0,0,0,2.55-2.57"/><polygon class="cls-1" points="306.46 71.36 302.21 71.36 295.8 90.51 295.72 91.42 295.64 90.46 289.14 71.36 284.86 71.36 293.7 95.62 297.31 95.62 306.46 71.36"/><path class="cls-1" d="M325.42,79.89H313.88c.88-3.66,3.18-5.6,6.45-5.6s5,1.94,5.09,5.6m4.28,3V80.53c0-5.87-3.59-9.79-9.11-9.79-6.71,0-11.14,4.94-11.14,12.45s4.43,12.43,11,12.43c3.05,0,5-.69,8.53-2.87l-1.58-3.07c-2.57,1.77-4.05,2.33-6.13,2.33-4.8,0-7.71-3.47-7.71-9.17Z"/><path class="cls-1" d="M349.13,72.36a4.59,4.59,0,0,0-3-1.62c-1.77,0-3.23,1.14-6.12,4.89V71.35h-3.92V94.93H340v-14c2.22-4.08,4.09-6.2,5.57-6.2.47,0,.86.25,1.66.93Z"/><path class="cls-1" d="M369.25,88.83c0-3.67-1.38-5.29-6.4-7.39-4.26-1.75-4.88-2.11-5.83-3a2.13,2.13,0,0,1-.57-1.46c0-1.76,1.73-3,4.39-3a11,11,0,0,1,2.7.42,11.16,11.16,0,0,1,3.38,1.56l1.94-3.17A13.34,13.34,0,0,0,364.27,71a20.67,20.67,0,0,0-3-.26c-5.5,0-9,2.55-9,6.66,0,2.85,1.57,4.47,6.16,6.39,4.21,1.74,5.3,2.39,6.25,3.74a3.28,3.28,0,0,1,.47,1.63c0,1.83-1.77,3.11-4.15,3.11A14,14,0,0,1,355.58,91c-.43-.21-1-.53-1.77-.95l-1.62,3.3a16.68,16.68,0,0,0,5.57,2,18.87,18.87,0,0,0,3.28.33c5.13,0,8.21-2.56,8.21-6.79"/><path class="cls-1" d="M380.74,71.36h-3.92V94.93h3.92Zm.63-8.22a2.56,2.56,0,1,0-2.57,2.57,2.55,2.55,0,0,0,2.57-2.57"/><path class="cls-1" d="M405.07,87.75a12.62,12.62,0,0,1-2.55,2.55,8.68,8.68,0,0,1-4.59,1.61c-3.64,0-6.29-3.43-6.29-8.17,0-5.67,3.24-9.26,8.22-9.26,2.39,0,4,.69,4.72,2a5.81,5.81,0,0,1,.49,3.11ZM409,94.93V60.24h-3.95V72.36a8.48,8.48,0,0,0-5.61-1.62c-7,0-12,5.45-12,13.05,0,7,4.06,11.83,9.84,11.83a10.37,10.37,0,0,0,7.8-3.67v3Z"/><path class="cls-1" d="M429.45,89.05c-3.39,2.47-4.59,3-6.33,3A3,3,0,0,1,419.91,89a4.77,4.77,0,0,1,.68-2.55l8.86-2.3Zm5.89,3.29c-1.19-.23-1.85-.64-2-1.26V76.62c0-3.63-3-5.88-7.67-5.88-5,0-8.51,2.15-8.51,5.25a2.23,2.23,0,0,0,.46,1.47l3.94-.84a2.7,2.7,0,0,1-.23-.88c0-1.36,1.17-2,3.61-2,3,0,4.47,1,4.47,2.91V80.9l-8.16,1.94c-3.45.81-5.26,3.1-5.26,6.53a5.89,5.89,0,0,0,6.28,6.21,10.56,10.56,0,0,0,5-1.37,12.75,12.75,0,0,0,2.5-1.87c.21,2.22,1.34,3.06,4.58,3.28Z"/><path class="cls-1" d="M457.82,87.75a13.15,13.15,0,0,1-2.52,2.55,8.86,8.86,0,0,1-4.6,1.61c-3.63,0-6.27-3.43-6.27-8.17,0-5.67,3.22-9.26,8.2-9.26,2.4,0,4,.69,4.71,2a5.94,5.94,0,0,1,.48,3.11Zm4,7.18V60.24h-4V72.36a8.45,8.45,0,0,0-5.61-1.62c-7,0-12,5.45-12,13.05,0,7,4.06,11.83,9.83,11.83a10.27,10.27,0,0,0,7.8-3.67v3Z"/><path class="cls-1" d="M498.84,87.75a11.46,11.46,0,0,1-2.54,2.55,8.71,8.71,0,0,1-4.58,1.61c-3.62,0-6.28-3.43-6.28-8.17,0-5.67,3.22-9.26,8.2-9.26,2.4,0,4,.69,4.75,2a6.24,6.24,0,0,1,.45,3.11Zm4,7.18V60.24h-4V72.36a8.41,8.41,0,0,0-5.59-1.62c-7,0-12,5.45-12,13.05,0,7,4.06,11.83,9.83,11.83A10.28,10.28,0,0,0,498.84,92v3Z"/><path class="cls-1" d="M525.22,79.89H513.67c.88-3.66,3.14-5.6,6.45-5.6s5,1.94,5.1,5.6m4.25,3V80.53c0-5.87-3.59-9.79-9.08-9.79-6.72,0-11.17,4.94-11.17,12.45s4.45,12.43,11,12.43c3.08,0,5-.69,8.51-2.87l-1.55-3.07c-2.52,1.77-4,2.33-6.11,2.33-4.82,0-7.71-3.47-7.71-9.17Z"/><path class="cls-1" d="M0,124.42A160.77,160.77,0,0,1,7.22,76.33C21.17,31.48,53.89,0,92,0s70.72,31.36,84.74,76.07A161.27,161.27,0,0,1,184,124.42v.49c0,69-41.2,124.9-92,124.9S0,193.89,0,124.91ZM10.12,77.24A157.73,157.73,0,0,0,3,124.42v.49c0,68.23,40.63,121.86,89,121.86s89-53.63,89-121.86v-.49A157.82,157.82,0,0,0,173.84,77C160.06,33,128.24,3.05,92,3.05S23.86,33.11,10.12,77.24"/><path class="cls-1" d="M80.24,24.74a12.25,12.25,0,0,1-2.86.45l-3-12.12c5.34-1.34,8.32.33,9.44,4.88.88,3.53-1,6.12-3.59,6.79m5.54-8.08c-1.14-4.54-4.56-6.46-9.65-5.19-4.07,1-5.22,1.61-5.58,2a.51.51,0,0,0,0,.71l1.88-.24,3,11.91-1.19.63c-.5.27-.65.66-.38,1.09.46-.13,2-.55,3.11-.82s2.71-.59,3.36-.74c4.88-1.23,6.56-5,5.49-9.34"/><path class="cls-1" d="M110.67,20.57c-1.27,3.9-3.76,5.24-6.46,4.36s-3.92-3.4-2.5-7.71c1.09-3.39,3.4-5.14,6.27-4.21,3.33,1.08,3.82,4.15,2.69,7.56m2.39-.26c1.4-4.3,0-7.24-3.89-8.48-4.48-1.46-8.32,1-9.89,5.79-1.29,4-.18,7.23,3.66,8.49,4.51,1.45,8.46-.65,10.12-5.8"/><path class="cls-1" d="M124.87,24.07a3.16,3.16,0,0,1-4.8,1.07c-.24-.15-.51-.34-.78-.54l3.57-5.73c.34.17.65.38.92.54a3.13,3.13,0,0,1,1.09,4.66m-1,12a6.64,6.64,0,0,1-1.13-3.39l-.6-5.77A4.69,4.69,0,0,0,127,24.8c1.31-2.07.5-4.44-2.22-6.13-3.32-2.08-4.74-2.75-5.14-2.12,0,.09-.07.18-.12.27L121,18l-6.54,10.44-1.37-.4a.71.71,0,0,0-1,.49c.85.48,1.43.84,2.23,1.32s1.54,1,2.36,1.53a1,1,0,0,0,1.29-.24l-1.81-1.53,2.6-4.15,1.36.86.39,6.06c.19,2.29.7,2.92,1.83,3.62a1.3,1.3,0,0,0,1.54.07"/><path class="cls-1" d="M46.75,43.39c-1.91-1.61-3.49-1.16-5.93.27-1.85,1.1-3.21,1.46-4.32.55a2.52,2.52,0,0,1,0-3.47,8.18,8.18,0,0,1,2-1.82l1.61,1.45a1.06,1.06,0,0,0,.12-1.73l-1.73-1.7a17.24,17.24,0,0,0-2.72,2.6c-1.67,2-2,5,.09,6.8,1.22,1,2.86,1,5-.22,2.94-1.67,4.13-1.53,5.14-.66a2.88,2.88,0,0,1,.08,3.8c-1.46,1.73-2.78,2-4.44.59a1.71,1.71,0,0,0,0,2.45c1.48,1.25,3.36.34,5-1.6,1.94-2.29,2-5.65,0-7.31"/><path class="cls-1" d="M53.31,28.3l-3.17-2.78A43.26,43.26,0,0,1,46,29.84c-1.37,1.32-2.85,2.57-4.58,4.25l2.5,3.32c.61-.39.73-.74.15-2.1L43.46,34c.7-.73,1.62-1.58,2.44-2.37l8.55,8.86-.88,1.38A.68.68,0,0,0,53.82,43c.44-.52,1.34-1.38,2.21-2.2s1.46-1.4,1.91-1.8A.86.86,0,0,0,58,37.67L56,39l-8.54-8.83a26,26,0,0,0,2.48-2.49l1.74,1a1,1,0,0,0,1.63-.39"/><path class="cls-1" d="M65.57,15.3l-3.75,2.17c-.7.39-.77,1-.44,1.34l1.71-.62,2.51,11-8.69-7.46,1-.73a1.15,1.15,0,0,0,.41-1.57l-4.25,2.45c-.64.38-.91,1-.47,1.53L55,22.92,66.2,32.7a2.72,2.72,0,0,0,1-3L64.62,17.52c1.31-.59,1.57-1.3.95-2.22"/><path class="cls-1" d="M95,23.32l-2.17-.43L93,10.45l1.11-.1c.73-.06,1-.27.92-1l-4.7-.09c-.86,0-1.31.32-1.18,1l1.77.19-.22,12.45-1.37.28c-.72.14-.87.52-.73,1,.67,0,1.74,0,2.77,0s1.89,0,2.52.08A.88.88,0,0,0,95,23.32"/><path class="cls-1" d="M142.87,33.69l-3.12-3c-.59-.55-1.15-.45-1.41,0l1.08,1.45-9.94,5.45,4.78-10.41,1,.79a1.16,1.16,0,0,0,1.65,0l-3.54-3.4c-.56-.51-1.27-.59-1.6,0l.88,1.14-6.3,13.52a2.71,2.71,0,0,0,3.09.14l11.06-5.85c.91,1.07,1.67,1.15,2.39.28"/><path class="cls-1" d="M143.26,58.5l-.62-1.67,9.47-7.91c1.18,1.31,1.73,1.48,2.23.92L152,46.4l-12.13,3,7.22-10.25-1.6-2.38c-.5-.77-1.14-.75-1.47-.31l.67,1.83L134,43.93,132.89,43a.67.67,0,0,0-1,.08c.41.52.89,1.27,1.39,2s.92,1.4,1.25,1.93a.84.84,0,0,0,1.27.33l-.89-2,8.7-4.91-7,10.07a2.61,2.61,0,0,0,2.27.51l10.68-2.73-8,6.82-1.12-1a.72.72,0,0,0-1,.06c.43.54.92,1.29,1.42,2s.9,1.38,1.24,1.91a.87.87,0,0,0,1.3.39"/><path class="cls-1" d="M22.89,189.66l2.24,3.71c.4.69,1,.75,1.33.39l-.65-1.7,11-2.69-7.33,8.82-.73-1a1.13,1.13,0,0,0-1.6-.37l2.54,4.2c.38.64,1.06.88,1.53.44l-.55-1.31,9.58-11.43a2.66,2.66,0,0,0-3-.94l-12.17,2.78c-.61-1.27-1.33-1.53-2.24-.88"/><path class="cls-1" d="M16.44,171.93l1.39,3.8c.29.8.85,1.1,1.46.72l-.45-1.77,9.72-3.54-7.92,12.29.73,2c.33.93,1,1,1.4.64l-.35-1.84,11.47-4.19.82,1.13a.66.66,0,0,0,1,.19,22.75,22.75,0,0,1-.86-2.22c-.34-.89-.6-1.7-.8-2.32A.86.86,0,0,0,33,176.3l.38,2.21-9.11,3.32,6.92-10.62c.62-1,.72-1.45.52-1.91a2.43,2.43,0,0,0-.49-.9l-12.91,4.71-.43-.79c-.34-.63-.71-.74-1.39-.39"/><path class="cls-1" d="M26.68,159.28l.21,2.2-12,3.21-.4-1c-.26-.68-.55-.88-1.25-.61,1.12,4.24,1.22,4.55,1.22,4.55.22.85.63,1.18,1.27.87l-.32-1.78,12.05-3.21.62,1.27c.34.63.76.67,1.13.4-.21-.62-.48-1.64-.76-2.66s-.49-1.82-.61-2.43a.89.89,0,0,0-1.14-.78"/><path class="cls-1" d="M10.56,146.94l.76,4.28c.14.8.66,1,1.12.83v-1.79l11.25,1.42-10,5.61-.34-1.22a1.14,1.14,0,0,0-1.34-.92l.84,4.82c.14.74.69,1.22,1.29,1l0-1.43,13-7.25a2.69,2.69,0,0,0-2.42-1.93l-12.38-1.75c-.09-1.43-.68-1.92-1.77-1.65"/><path class="cls-1" d="M20.42,132.45c-.23.63,0,1.18.95,1.41l1.73.48.3,5.52-5.41.56-.42-4.09,1.5-.08A1,1,0,0,0,18,135c-1,.11-1.89.17-3.29.26a.93.93,0,0,0,.21,1c.34.29.61.29,1.35.19l.42,4.11-5.39.58-.35-5,2.13-.58c.1-.6-.22-1.16-.91-1l-2.78.44.83,7.83c.23,2.24.61,2.34,1.3,2.13l0-1.67,12.32-1.29.44,1.19a.73.73,0,0,0,1,.42l-1.12-10.63Z"/><path class="cls-1" d="M13.38,123.17a3.18,3.18,0,0,1,3.51,3.46c0,.29,0,.61,0,1l-6.75.11c0-.37,0-.74,0-1a3.14,3.14,0,0,1,3.31-3.48M24,117.46a6.35,6.35,0,0,1-2.2,2.81l-4.51,3.63a4.64,4.64,0,0,0-4.4-2.86c-2.45,0-4,2-3.94,5.18.08,3.93.27,5.48,1,5.46a1.93,1.93,0,0,0,.27,0l.2-1.88,12.34-.22.41,1.39a.72.72,0,0,0,.92.54c-.07-1-.07-1.68-.09-2.61s0-1.84,0-2.78a1,1,0,0,0-.9-1l-.32,2.37-4.89.08,0-1.61,4.85-3.66c1.81-1.37,2.08-2.15,2.05-3.49a1.3,1.3,0,0,0-.8-1.33"/><path class="cls-1" d="M20.77,106.75c-2.49-.06-3.43,1.29-4.44,3.94-.74,2-1.57,3.17-3,3.13a2.5,2.5,0,0,1-2.15-2.69,8.63,8.63,0,0,1,.43-2.68l2.16.11a1.06,1.06,0,0,0-1-1.41l-2.41-.24a18,18,0,0,0-.47,3.73c-.05,2.61,1.57,5.18,4.32,5.25,1.63,0,2.88-1,3.8-3.35,1.21-3.15,2.23-3.76,3.57-3.76A2.86,2.86,0,0,1,24,111.71c0,2.27-.89,3.28-3.05,3.25a1.69,1.69,0,0,0,1.58,1.88c1.94,0,2.83-1.86,2.88-4.37,0-3-2-5.68-4.59-5.72"/><path class="cls-1" d="M25.59,99.67l-.74,2.06L12.57,99.57l.1-1.1c0-.72-.12-1-.88-1.08C11,101.69,11,102,11,102c-.16.85.09,1.34.78,1.33l.45-1.73,12.27,2.15,0,1.42c.06.71.41.94.86.86.08-.66.26-1.73.43-2.74s.33-1.86.46-2.46a.85.85,0,0,0-.68-1.19"/><path class="cls-1" d="M18.88,83.08l-4.17-.68a45.37,45.37,0,0,1-1.25,5.88c-.47,1.83-1.08,3.69-1.67,6l3.92,1.48c.33-.64.24-1-1-1.86l-1.13-.77c.19-1,.54-2.19.82-3.28l11.92,3,0,1.64a.71.71,0,0,0,.78.77c.12-.68.42-1.88.72-3s.51-2,.67-2.54a.86.86,0,0,0-.63-1.17l-1,2.26-11.91-3a25.65,25.65,0,0,0,.79-3.44l2-.08c.84,0,1.2-.32,1.2-1.2"/><path class="cls-1" d="M25.93,75.51l-1.51,3.9-5.1-4.18ZM33.85,72l-1,1.5L18,73.33c-.16.33-.28.55-.42.86a1.37,1.37,0,0,0,.51,1.72l10.36,8.92-.12,1.22a.69.69,0,0,0,.71.71,17.56,17.56,0,0,1,.75-2.05c.3-.84.66-1.69.92-2.29a.9.9,0,0,0-.39-1.21l-1.2,2-3.67-3,1.82-4.69,4.67.15-.23,1.77a.61.61,0,0,0,.63.72c.17-.59.53-1.52.89-2.44s.76-1.95,1-2.56A.87.87,0,0,0,33.85,72"/><path class="cls-1" d="M35.43,60.75c-2.19-1.16-3.64-.41-5.72,1.51-1.59,1.46-2.86,2.09-4.13,1.42a2.51,2.51,0,0,1-.7-3.4,8.84,8.84,0,0,1,1.57-2.2l1.87,1.09a1,1,0,0,0-.24-1.71l-2-1.31a18.5,18.5,0,0,0-2.14,3.1c-1.22,2.3-.95,5.35,1.48,6.65,1.44.76,3.05.39,4.92-1.26,2.52-2.25,3.69-2.36,4.87-1.71A2.79,2.79,0,0,1,36,66.62c-1,2-2.27,2.51-4.17,1.5a1.69,1.69,0,0,0,.54,2.39c1.72.91,3.39-.35,4.55-2.57,1.42-2.66.78-6-1.49-7.19"/><path class="cls-1" d="M156.68,73,155,69.13l6.6-.55Zm-3.2,8-.36-1.78L163.9,69.05a3.82,3.82,0,0,0-.3-.92,1.39,1.39,0,0,0-1.54-.9L148.39,68l-.75-1a.68.68,0,0,0-1,0c.28.55.61,1.29.92,2s.68,1.68.9,2.28a.87.87,0,0,0,1.1.6l-.5-2.26,4.72-.4,1.94,4.62L152.25,77l-1.06-1.44a.64.64,0,0,0-1-.09c.3.58.69,1.47,1.05,2.39s.82,1.93,1.07,2.55a.89.89,0,0,0,1.14.62"/><path class="cls-1" d="M171.33,93.35l-1-3.91c-.23-.83-.75-1.17-1.37-.85l.28,1.81-10,2.68,8.95-11.56-.54-2.11c-.28-1-.93-1-1.33-.77l.16,1.89L154.67,83.7,154,82.49a.69.69,0,0,0-1-.27c.22.59.44,1.42.66,2.28s.45,1.75.6,2.4a.88.88,0,0,0,1.09.66l-.19-2.26,9.37-2.51-7.83,10c-.7.91-.81,1.37-.7,1.86a2.58,2.58,0,0,0,.43.93L169.63,92l.36.83c.3.65.64.8,1.34.51"/><path class="cls-1" d="M159.59,104.81a12.86,12.86,0,0,1-.17-2.91l12.38-1.73c.78,5.48-1.2,8.24-5.82,8.9-3.61.5-6-1.59-6.39-4.26m7.42,6.34c4.67-.68,6.94-3.87,6.18-9-.57-4.17-1.05-5.37-1.38-5.79a.48.48,0,0,0-.69-.06l0,1.88L159,99.86l-.51-1.25c-.19-.53-.58-.73-1-.49.1.46.35,2,.5,3.17s.32,2.74.39,3.41c.69,5,4.28,7.06,8.68,6.45"/><path class="cls-1" d="M160.67,121.29l.28-2.18,12.41-.66.18,1.09c.1.73.36,1,1.1.86-.23-4.34-.26-4.71-.26-4.71-.06-.86-.4-1.28-1.06-1.1l0,1.79-12.46.63-.35-1.36c-.2-.67-.61-.81-1-.64.08.67.15,1.74.19,2.77s.09,1.89.08,2.5a.9.9,0,0,0,1,1"/><path class="cls-1" d="M174.08,140l.21-4.05c.06-.87-.32-1.33-1-1.24L173,136.5,162.62,136l12.11-8.23.12-2.16c0-1-.56-1.32-1-1.16l-.43,1.87-12.2-.65-.3-1.36a.66.66,0,0,0-.87-.58c0,.62,0,1.48-.08,2.39s-.13,1.79-.17,2.43a.86.86,0,0,0,.83,1l.5-2.19,9.69.51-10.51,7.08c-.94.62-1.21,1-1.26,1.55a2.38,2.38,0,0,0,.13,1l13.71.72.1.9c.07.71.35.95,1.1.91"/><path class="cls-1" d="M160.72,152.41c.37-.56.3-1.14-.55-1.62l-1.54-.9,1.12-5.41,5.38.85-.64,4.07-1.52-.32a1,1,0,0,0,.78,1.45c1,.17,1.86.33,3.24.62a1,1,0,0,0,0-1c-.27-.36-.53-.44-1.24-.56l.63-4.07,5.37.85-1,5h-2.22c-.24.56-.08,1.19.58,1.27l2.83.26,1.25-7.77c.33-2.22,0-2.42-.72-2.39l-.43,1.62-12.23-1.94-.11-1.26a.73.73,0,0,0-.88-.67L157.26,151Z"/><path class="cls-1" d="M167.37,172.67l1-3.89c.22-.85,0-1.4-.78-1.44l-.63,1.71-10-2.69,13.54-5.51.58-2.08c.25-1-.27-1.42-.77-1.34l-.8,1.71L157.74,156v-1.4c0-.54-.36-.79-.75-.74-.12.6-.32,1.45-.57,2.3s-.49,1.73-.67,2.38a.84.84,0,0,0,.61,1.09l1-2,9.37,2.49-11.76,4.75c-1.06.42-1.42.77-1.55,1.25a2.41,2.41,0,0,0-.09,1l13.27,3.56-.11.88c-.07.72.15,1,.92,1.12"/><path class="cls-1" d="M153.08,180.18c2.29.92,3.65,0,5.55-2.1,1.41-1.63,2.62-2.38,4-1.86a2.54,2.54,0,0,1,1,3.31,8.78,8.78,0,0,1-1.36,2.33l-2-.85a1,1,0,0,0,.41,1.66l2.18,1.1a17.41,17.41,0,0,0,1.79-3.31c1-2.41.38-5.41-2.17-6.46-1.51-.6-3.05-.06-4.72,1.77-2.28,2.5-3.46,2.72-4.71,2.21a2.84,2.84,0,0,1-1.2-3.58c.84-2.1,2-2.75,4-1.94a1.65,1.65,0,0,0-.8-2.3c-1.81-.73-3.29.7-4.25,3-1.13,2.79-.17,6,2.23,7"/><path class="cls-1" d="M146.87,185.37l1.33-1.74,11,5.87-.4,1c-.3.66-.22,1,.48,1.29,2.06-3.84,2.21-4.15,2.21-4.15.41-.78.34-1.31-.34-1.51l-1,1.5-11-5.85.37-1.35c.2-.69-.07-1-.52-1.06-.29.59-.78,1.53-1.26,2.44s-.89,1.68-1.22,2.2a.86.86,0,0,0,.31,1.34"/><path class="cls-1" d="M144.23,196.77c2.12,1.33,3.6.67,5.82-1.1,1.69-1.35,3-1.9,4.23-1.13a2.53,2.53,0,0,1,.45,3.44A9.14,9.14,0,0,1,153,200l-1.82-1.19a1,1,0,0,0,.14,1.71l1.94,1.45a18.7,18.7,0,0,0,2.34-2.95c1.37-2.2,1.31-5.25-1-6.71-1.37-.88-3-.62-5,.91-2.66,2.06-3.85,2.09-5,1.36a2.87,2.87,0,0,1-.57-3.75c1.22-1.92,2.46-2.33,4.29-1.2a1.67,1.67,0,0,0-.38-2.41c-1.64-1-3.38.11-4.72,2.25-1.61,2.55-1.2,5.88,1,7.26"/><path class="cls-1" d="M67.73,231.14a.93.93,0,0,0-1.48-.08L65,232.26a8,8,0,0,1-3-1c-2.62-1.41-3.71-4.2-1.38-8.6,1.8-3.41,4.74-4,7.68-2.42a8.29,8.29,0,0,1,2.15,1.57l-1.18,1.86c.48.52,1.06.51,1.68-.27l1.41-1.87a10.62,10.62,0,0,0-3-2.35c-4.26-2.24-8.76-1.1-11.1,3.3s-1.24,7.76,2.51,9.73a11.29,11.29,0,0,0,5,1.36Z"/><path class="cls-1" d="M85.64,240.05l-2-.9,3-12.1,1,.13c.71.08,1.1,0,1.22-.74l-4.5-1.14c-.84-.2-1.33,0-1.36.67l1.64.57-1.32,5.23-7.87-2,1.31-5.23,1.17.18c.71.09,1.13,0,1.23-.76-4.25-1-4.73-1.19-4.73-1.19-.86-.19-1.35,0-1.37.69l1.68.57-3,12.12-1.57,0a.67.67,0,0,0-.69.78c.63.14,1.77.39,2.85.65s1.7.44,2.22.6,1.22,0,1.39-.57l-2.2-.94,1.4-5.6,7.87,2-1.38,5.58H80.08c-.56,0-.81.37-.73.75.71.17,1.83.43,2.93.71.84.2,1.63.42,2.21.57a.88.88,0,0,0,1.15-.62"/><path class="cls-1" d="M98,240l-2.2-.26-.65-12.44,1.08-.18c.74-.1,1-.35.86-1.09l-4.7.25c-.86,0-1.28.39-1.1,1.06l1.77.09.66,12.43-1.37.35c-.69.2-.81.6-.64,1,.65-.1,1.73-.14,2.77-.19s1.88-.1,2.5-.08a.91.91,0,0,0,1-1"/><path class="cls-1" d="M114.09,232.71a1,1,0,0,0-1.18,1l-.16,2-5.35,1.39-3.59-11.73,1.25-.51c.67-.28.94-.62.65-1.32L101,225c-.83.27-1.13.71-.82,1.32l1.66-.33,3.66,11.88-1.15.71a.65.65,0,0,0-.13,1l10.23-3.14Z"/><path class="cls-1" d="M126.33,225.88c-.64.05-1.08.48-.9,1.46l.29,1.76-4.93,2.52-2.72-4.71,3.57-2.06.7,1.37a1,1,0,0,0,.66-1.52c-.52-.88-.92-1.65-1.57-2.89a.92.92,0,0,0-.8.58c-.12.42,0,.67.36,1.31l-3.59,2.06-2.72-4.71,4.46-2.34,1.41,1.71c.58-.16,1-.7.58-1.27l-1.53-2.35-6.8,3.93c-2,1.14-1.91,1.51-1.44,2.06l1.54-.69,6.19,10.72-.93.9a.71.71,0,0,0,0,1.09l9.27-5.35Z"/><path class="cls-1" d="M42.26,209.69a3.1,3.1,0,1,1,3.1,3.09,3.1,3.1,0,0,1-3.1-3.09"/><path class="cls-1" d="M135.57,209.69a3.1,3.1,0,1,1,3.09,3.09,3.1,3.1,0,0,1-3.09-3.09"/><path class="cls-1" d="M151.42,123.83H93.09V32.63c18.31.61,41.18,16.95,52.55,53.24a127.9,127.9,0,0,1,5.78,38M93.09,126h58.33c-.58,58.87-34.22,90.31-58.33,91.21ZM91,217.2C66.76,216.3,33,185.15,32.6,126H91Zm0-93.37H32.6a131.43,131.43,0,0,1,5.74-37.76C49.66,49.65,72.6,33.24,91,32.63Zm62.61.59a130.44,130.44,0,0,0-5.88-39.19C135.93,47.7,111.75,30.48,92,30.48s-44,17.3-55.71,55a133.47,133.47,0,0,0-5.84,39.48c0,61.36,35.48,94.43,61.55,94.43s61.54-33.56,61.54-94.92"/><path class="cls-1" d="M118.64,165.2h16.29a1.07,1.07,0,0,0,1-1.06v-18c0-.48,0-.87.92-.87s.87.44.87.87v19.19a1.41,1.41,0,0,1-1.6,1.59H101.18a1.41,1.41,0,0,1-1.6-1.59V146.17c0-.43,0-.87.87-.87s.91.39.91.87v18a1.09,1.09,0,0,0,1,1.06Z"/><path class="cls-1" d="M118.65,162.11h12.59c1.92,0,1.81-.9,1.07-1.25-3.59-1.34-9-1.61-12.07,0-1.25.68-1-.56-1-1.07V143.73c0-.89,1-3.39,10.08-3,4.87.2,4.93,1.1,4.93,1.75v19.8a1.41,1.41,0,0,1-1.5,1.5H104.57a1.39,1.39,0,0,1-1.48-1.5v-19.8c0-.65,0-1.58,4.93-1.75,9.06-.29,10.07,2.16,10.07,3v16.06c0,.51.21,1.75-1,1.07-3.07-1.61-8.49-1.34-12,0-.74.35-.87,1.25,1,1.25Z"/><path class="cls-1" d="M128.53,92.88a9.23,9.23,0,1,1-9.24-9.23,9.24,9.24,0,0,1,9.24,9.23m9.22-3.1c-.32-.45-1.13,0-1.86,0-2.17-.12-3.46-1.14-5.61-1.45-.61-.12-1.27-.38-1.6-.47,2.73-1,4.38-4.36,2.92-5.1-.48-.24-.82.69-1.42,1-1.59,1-3-.16-4.58.84a7.69,7.69,0,0,0,1.48-2.72c.9-2,2.34-5.58.82-5.64-.52,0-.64.93-1.11,1.47-1.45,1.62-3,2-4.51,3.43-.43.42-.92.8-1.2,1,.79-2.81-1-6.12-2.47-5.38-.48.25.07,1.06,0,1.74-.14,1.83-1.8,2.29-2,4a7.1,7.1,0,0,0-1.3-2.79c-1.11-1.94-3.14-5.19-4.08-4-.34.42.37,1.07.5,1.77.49,2.11-.13,3.64.13,5.55,0,.4.1.84.17,1.27-1.67-2.25-5.17-3-5.52-1.42-.1.55.85.65,1.35,1.14,1.28,1.28.59,2.83,1.8,4.14a7.62,7.62,0,0,0-3-.79c-2.19-.4-6-.94-5.68.55.11.54,1,.41,1.69.74,1.92,1,2.71,2.45,4.32,3.48.35.24.71.48,1.08.71-2.8,0-5.52,2.26-4.52,3.47.36.43,1-.28,1.72-.36,1.81-.22,2.61,1.3,4.37,1.12a8,8,0,0,0-2.49,1.87c-1.64,1.52-4.41,4.16-3,4.84.48.25,1-.58,1.61-.88,2-.9,3.61-.62,5.4-1.26.39-.14.83-.27,1.22-.43-1.87,2.11-1.83,5.65-.22,5.67.54,0,.45-1,.81-1.53,1-1.55,2.66-1.16,3.68-2.62a7.3,7.3,0,0,0-.14,3.09c.07,2.22.33,6.07,1.73,5.44.48-.21.16-1.12.35-1.81.57-2.08,1.82-3.14,2.5-5a6.68,6.68,0,0,0,.43-1.26c.41,2.87,3.35,5.18,4.36,3.92.33-.41-.49-1-.7-1.59-.61-1.72.71-2.82.18-4.53a7.8,7.8,0,0,0,2.36,2c1.81,1.32,5,3.46,5.35,2,.14-.54-.78-.84-1.19-1.42-1.3-1.71-1.37-3.38-2.36-5a5.71,5.71,0,0,1-.61-1.26c2.53,1.57,6.32.78,6-.86-.1-.56-1.07-.25-1.73-.51-1.69-.63-1.73-2.3-3.25-3a8.62,8.62,0,0,0,3-.51c2.15-.55,5.83-1.59,5-2.83"/><path class="cls-1" d="M111.86,92.88a7.44,7.44,0,1,1,7.43,7.41,7.42,7.42,0,0,1-7.43-7.41"/><path class="cls-1" d="M63.79,138.46a3.06,3.06,0,0,1,1.74.39,3.61,3.61,0,0,1,1.2,1h3.33a2.3,2.3,0,0,1,2,1.6c.54,1.67-1.12,3.12-1.12,3.12.7.62,6.88,6.69,7.61,7.4a4.78,4.78,0,0,1,1.09,4.67c-.29,1.1-1,1.48-1.67,1S69.38,147,69.38,147s-.26-.34-.46-.19-.09.32,0,.55,8.42,11.42,8.42,11.42a3.71,3.71,0,0,1,.62,2.71c-.28,1-1.81,3.38-3.09,3.7A2,2,0,0,1,72.56,164c-1.48-3.9-5.38-15.66-5.38-15.66s-.27-.81-.65-.71-.15.87-.15.87,4.67,15,5.19,16.65a2.66,2.66,0,0,1-.56,2.76c-.64.69-1.5,1.33-4.25,1.86-.29,0-2-.08-2.16-1.61-.16-2.08-.32-19.46-.32-19.46s0-.77-.47-.77-.46.78-.46.78-.18,17.37-.34,19.45c-.11,1.53-1.85,1.62-2.15,1.62-2.75-.54-3.6-1.15-4.27-1.86a2.65,2.65,0,0,1-.54-2.74c.5-1.68,5.18-16.68,5.18-16.68s.25-.77-.15-.87-.64.73-.64.73S56.53,160.13,55.06,164a2,2,0,0,1-2.34,1.18c-1.28-.35-2.83-2.7-3.1-3.73a3.68,3.68,0,0,1,.63-2.69s8.3-11.19,8.42-11.43.25-.42,0-.56-.47.19-.47.19-8.1,10.22-8.61,10.61-1.41.12-1.68-1a4.82,4.82,0,0,1,1.1-4.67c.73-.71,6.9-6.76,7.6-7.39,0,0-1.65-1.45-1.12-3.13a2.35,2.35,0,0,1,2-1.6H60.9a4.36,4.36,0,0,1,1.18-1,3.09,3.09,0,0,1,1.71-.39m6.11,4.85a1.21,1.21,0,0,0,.6-1,1.13,1.13,0,0,0-1.14-1.12h-1.6Zm-12.17,0,2.15-2.09H58.26a1.11,1.11,0,0,0-1.1,1.12,1.18,1.18,0,0,0,.57,1"/><path class="cls-1" d="M58.45,93.19c0-1.73-.16-1.61.78-3,.71-1.14.78-2.8,1-4.15.15-.77-.73-1-1-.1-.3.62-1,1.3-1.4,2-1.24,1.53-3.29,4.49-4,5.65-.47.72-2.74,2.36-2.39,3.51.2.64,1.37.59,2.67-.76.71-.84.9-1,1.48-1.08,1,.12,0,1,1.16,1.32s1.71-2.3,1.69-3.36m20.27,12.48a.8.8,0,0,1-.15,1.14.73.73,0,0,1-1.12-.12l-2-2.5c-2,.49-5.57-2.91-6.71-3.48s-3.23,3-4.31.53c-2.27-5.22-8.46,3.38-10.58,3.2s.38-2.75-.09-4.46-2.5,0-4.22.46a17,17,0,0,1-2.18.41l-4.9,6.07a.72.72,0,0,1-1.1.11.78.78,0,0,1-.16-1.14L57.4,84.72a8.88,8.88,0,0,1,1-1.23c1.36-1.45,2.71-1.89,4.59.18.6.67,1.75,2.25,3,4,1.21-2,4.21-5.74,5-7a2,2,0,0,1,3.15-.44c1.36,1.11,4.94,6.26,7.09,8.25a1.16,1.16,0,0,1,.33.34l2.27,2.29a.8.8,0,0,1,0,1.16.73.73,0,0,1-1.11,0L80.34,90a5.94,5.94,0,0,1-2.23,0c-1-.26-2.72-1.8-2.08,1.23.2,1,.49,1.49-.82,1.6S69.88,89.22,69,90.44a5.26,5.26,0,0,1-.71.84c1.26,2.07,10.43,14.39,10.43,14.39M71.37,83.15a24.78,24.78,0,0,1-2.27,3.4c-1,1,1.5,1.29,2.13.47S73,84.16,73,84.16s.06-1.63-.49-2-1.15,1-1.15,1"/></g></g></svg>