<svg xmlns="http://www.w3.org/2000/svg" viewBox="0 0 471.73 179.55"><defs><style>.cls-1{fill:#fff;}</style></defs><title>Asset 1</title><g id="Layer_2" data-name="Layer 2"><g id="Capa_1" data-name="Capa 1"><path class="cls-1" d="M220.79,146.73a5.55,5.55,0,0,1-6.06-6.22v-8h3.08v7.92a3.72,3.72,0,0,0,.8,2.59,3.31,3.31,0,0,0,4.44,0,3.5,3.5,0,0,0,.8-2.52v-8h3.08v7.9a8,8,0,0,1-.43,2.78,5.08,5.08,0,0,1-1.23,2,5,5,0,0,1-1.94,1.18A7.78,7.78,0,0,1,220.79,146.73Z"/><path class="cls-1" d="M234.47,132.51h2.84l6.56,8.62v-8.62h3v14h-2.62l-6.78-8.9v8.9h-3Z"/><path class="cls-1" d="M254.81,132.51h3.08v14h-3.08Z"/><path class="cls-1" d="M264.59,132.51H268l3.66,9.86,3.66-9.86h3.32L273,146.61h-2.72Z"/><path class="cls-1" d="M285.19,132.51h10.54v2.74h-7.5v2.84h6.6v2.74h-6.6v2.94h7.6v2.74H285.19Z"/><path class="cls-1" d="M303,132.51h6.4a5.49,5.49,0,0,1,4.08,1.42,4.33,4.33,0,0,1,1.2,3.2v0a4.35,4.35,0,0,1-.83,2.77,4.76,4.76,0,0,1-2.17,1.57l3.42,5h-3.6l-3-4.48h-2.42v4.48H303Zm6.2,6.8a2.55,2.55,0,0,0,1.75-.54,1.82,1.82,0,0,0,.61-1.44v0a1.77,1.77,0,0,0-.64-1.5,2.83,2.83,0,0,0-1.78-.5h-3.06v4Z"/><path class="cls-1" d="M326.85,146.71a9.23,9.23,0,0,1-3.14-.55,8.43,8.43,0,0,1-2.8-1.69l1.82-2.18a9.35,9.35,0,0,0,2,1.24,5.24,5.24,0,0,0,2.21.46,2.71,2.71,0,0,0,1.49-.35,1.09,1.09,0,0,0,.53-1v0a1.12,1.12,0,0,0-.11-.53,1.07,1.07,0,0,0-.42-.43,4.13,4.13,0,0,0-.86-.4c-.37-.13-.85-.27-1.43-.42a17.86,17.86,0,0,1-1.93-.58,5.46,5.46,0,0,1-1.46-.79,3.14,3.14,0,0,1-.93-1.17,3.91,3.91,0,0,1-.34-1.74v0a4,4,0,0,1,.36-1.73,4,4,0,0,1,1-1.33,4.67,4.67,0,0,1,1.55-.86,6.17,6.17,0,0,1,2-.3,8.28,8.28,0,0,1,2.83.46,8.36,8.36,0,0,1,2.37,1.32l-1.6,2.32a9.93,9.93,0,0,0-1.84-1,4.64,4.64,0,0,0-1.8-.37,2.2,2.2,0,0,0-1.35.35,1.05,1.05,0,0,0-.45.87v0a1.35,1.35,0,0,0,.13.59,1.17,1.17,0,0,0,.48.45,4.3,4.3,0,0,0,.93.38c.39.12.89.26,1.49.42a15.66,15.66,0,0,1,1.9.63,5.15,5.15,0,0,1,1.4.84,3.19,3.19,0,0,1,.86,1.15,3.81,3.81,0,0,1,.29,1.58v0a4.37,4.37,0,0,1-.37,1.85,3.94,3.94,0,0,1-1.06,1.36,4.66,4.66,0,0,1-1.61.84A7.11,7.11,0,0,1,326.85,146.71Z"/><path class="cls-1" d="M339.19,132.51h3.08v14h-3.08Z"/><path class="cls-1" d="M350.17,132.51h5.46a8.31,8.31,0,0,1,3,.53,6.94,6.94,0,0,1,2.36,1.47,6.55,6.55,0,0,1,1.53,2.21,7,7,0,0,1,.54,2.75v0a7,7,0,0,1-.54,2.76,6.59,6.59,0,0,1-1.53,2.22,7.12,7.12,0,0,1-2.36,1.48,8.1,8.1,0,0,1-3,.54h-5.46Zm5.46,11.22a4.74,4.74,0,0,0,1.72-.3,3.68,3.68,0,0,0,1.33-.86,3.82,3.82,0,0,0,.86-1.32,4.4,4.4,0,0,0,.31-1.7v0a4.51,4.51,0,0,0-.31-1.7,3.81,3.81,0,0,0-2.19-2.21,4.54,4.54,0,0,0-1.72-.31h-2.38v8.44Z"/><path class="cls-1" d="M375,132.41h2.84l6,14.1h-3.22l-1.28-3.14h-5.92l-1.28,3.14H369Zm3.24,8.24-1.86-4.54-1.86,4.54Z"/><path class="cls-1" d="M390.41,132.51h5.46a8.31,8.31,0,0,1,3,.53,6.94,6.94,0,0,1,2.36,1.47,6.55,6.55,0,0,1,1.53,2.21,7,7,0,0,1,.54,2.75v0a7,7,0,0,1-.54,2.76,6.59,6.59,0,0,1-1.53,2.22,7.12,7.12,0,0,1-2.36,1.48,8.1,8.1,0,0,1-3,.54h-5.46Zm5.46,11.22a4.74,4.74,0,0,0,1.72-.3,3.68,3.68,0,0,0,1.33-.86,3.82,3.82,0,0,0,.86-1.32,4.4,4.4,0,0,0,.31-1.7v0a4.51,4.51,0,0,0-.31-1.7,3.81,3.81,0,0,0-2.19-2.21,4.54,4.54,0,0,0-1.72-.31h-2.38v8.44Z"/><path class="cls-1" d="M182.81,61.33v-2.5H204v2.5c-7.17,0-8.21,1.47-8.21,10.11v20c0,13.56-9.41,20.73-20.82,20.73S154.21,105,154.21,91.4v-20c0-8.64-1.13-10.11-8.3-10.11v-2.5H173.3v2.5C166,61.33,165,62.8,165,71.44v19c0,11.14,6,16.33,13.39,16.33s12.7-5.19,12.7-16.33v-19C191.1,62.8,190.06,61.33,182.81,61.33Z"/><path class="cls-1" d="M299.56,71.44c0-8.64-1.13-10.11-8.3-10.11v-2.5h20.48v2.5c-7.26,0-8.3,1.47-8.3,10.11v40.69h-2.16L265.52,69.46V98.05c0,8.64,1.12,10.11,8.29,10.11v2.51H253.42v-2.51c7.17,0,8.21-1.47,8.21-10.11V71.44c0-8.64-1-10.11-8.21-10.11v-2.5H270.7l28.86,34.38Z"/><path class="cls-1" d="M318.13,108.16c7.17,0,8.2-1.47,8.2-10.11V71.44c0-8.64-1-10.11-8.2-10.11v-2.5h28.51c20,0,28.77,11.66,28.77,25.92s-8.73,25.92-28.77,25.92H318.13Zm19-11.15c0,8.38,1.13,9.77,8.3,9.77h.86c14,0,16.85-12.27,16.85-22s-2.85-22-16.85-22h-9.16Z"/><path class="cls-1" d="M379.72,108.16c7.17,0,8.21-1.47,8.21-10.11V71.44c0-8.64-1-10.11-8.21-10.11v-2.5h44.49l.7,12.18H422.4L422,69.28c-1.21-4.58-2.07-6.56-10-6.56H398.73V81.29h4.75c8.64,0,10-1.12,10-8.29H416V93.47H413.5c0-7.26-1.38-8.29-10-8.29h-4.75V96.67c0,8.64,1.12,10.11,8.29,10.11h7.78c7.95,0,8.89-2,10-6.57l.43-1.73h2.51l-.7,12.19H379.72Z"/><path class="cls-1" d="M438.55,112.13H436v-19h2.51c1.73,9.24,8.9,15.11,16,15.11,5,0,8.63-2.85,8.63-8.55,0-3.11-2.33-6.65-6.39-8.73l-8.29-4.31c-7.26-3.72-11.67-7.78-11.67-16.33,0-7.09,6.66-13,15-13a16.11,16.11,0,0,1,10.53,3.54,7.34,7.34,0,0,0,2.51-4h2.42v19h-2.51c-.6-6.92-3.37-14.78-12.43-14.78a6.83,6.83,0,0,0-7,6.91c0,2.59,2.24,6.48,6.91,8.81l8.29,4.24c6.13,3.19,11.15,8.47,11.15,15.29,0,9.42-8.3,15.72-17.19,15.72-6.57,0-10.72-3.45-13.48-4.06A7.31,7.31,0,0,0,438.55,112.13Z"/><path class="cls-1" d="M244.61,100.56l-18.83-43.2H224l-5,11.5,2.14,4.85v0L228,89.5H209.1l-1.72,3.88h22.29l3.63,8.21c2,4.58,1.12,6.57-6.48,6.57v2.51h28.33v-2.51C248.24,108.16,247,106.09,244.61,100.56Z"/><path class="cls-1" d="M127.18,54.71C116.77,21.47,92.83,0,66.2,0s-50.64,21.55-61,54.89A115,115,0,0,0,0,89.43v.35c0,49.5,29.7,89.77,66.2,89.77s66.22-40.27,66.22-89.77v-.35A115.13,115.13,0,0,0,127.18,54.71Zm-61,122.14c-35,0-63.49-39.06-63.49-87.07v-.35A112.46,112.46,0,0,1,7.77,55.69c10-32.18,33-53,58.43-53s48.35,20.72,58.4,52.8a112.82,112.82,0,0,1,5.1,33.91v.35C129.7,137.79,101.22,176.85,66.2,176.85Z"/><path class="cls-1" d="M109.45,89.43a91.6,91.6,0,0,0-4.13-27.53C97.06,35.53,80.07,23.43,66.21,23.43S35.29,35.59,27.07,62.05A93.87,93.87,0,0,0,23,89.78c0,43.11,24.93,66.35,43.25,66.35s43.24-23.59,43.24-66.7m-44-.4h-41a92.4,92.4,0,0,1,4-26.54c8-25.59,24.08-37.12,37-37.55Zm0,65.59c-17-.64-40.71-22.51-41-64.08h41ZM67,90.54h41c-.41,41.36-24,63.44-41,64.08ZM108,89H67V24.94c12.86.43,28.93,11.92,36.92,37.41A89.79,89.79,0,0,1,108,89"/><path class="cls-1" d="M16.9,103.32l-8.18.82a.16.16,0,0,1-.18-.16l-.15-1.47a.16.16,0,0,1,.15-.19l8.41-.83A1,1,0,0,0,18,100.3a1,1,0,0,0-1.27-.93l-8.41.83a.16.16,0,0,1-.18-.15L8,98.57a.16.16,0,0,1,.15-.18l8.17-.81c2-.2,3.11.78,3.28,2.56A2.66,2.66,0,0,1,16.9,103.32Z"/><path class="cls-1" d="M7.83,92.63a.16.16,0,0,1-.16-.17l0-1.81a.2.2,0,0,1,.17-.23l7.79-2.07v-.08l-7.77-.08A.16.16,0,0,1,7.72,88V86.75a.16.16,0,0,1,.17-.17l10.92.12a.16.16,0,0,1,.16.17l0,1.69a.2.2,0,0,1-.17.23L11,91v.1l7.77.08a.17.17,0,0,1,.17.18l0,1.26a.16.16,0,0,1-.16.17Z"/><path class="cls-1" d="M8.19,81.09A.16.16,0,0,1,8,80.9l.12-1.47a.16.16,0,0,1,.18-.16l10.87.9a.16.16,0,0,1,.15.19l-.12,1.47a.16.16,0,0,1-.18.16Z"/><path class="cls-1" d="M20.18,73.74a.18.18,0,0,1-.19.14l-11.14.51c-.1,0-.17,0-.14-.18l.23-1.44a.16.16,0,0,1,.19-.15l7.71-.1v0L9.57,70a.18.18,0,0,1-.13-.22l.23-1.41c0-.13.09-.16.19-.12l10.39,4c.1,0,.16.1.14.2Z"/><path class="cls-1" d="M11,63.24a.17.17,0,0,1-.12-.21l1.23-4.59a.15.15,0,0,1,.2-.12l1.23.32a.17.17,0,0,1,.12.21l-.78,2.9c0,.07,0,.11.07.12l2.87.77a.09.09,0,0,0,.12-.08l.67-2.5a.15.15,0,0,1,.2-.12l1.23.33a.15.15,0,0,1,.11.2L17.44,63c0,.06,0,.1.07.12l3,.79a.08.08,0,0,0,.12-.07l.77-2.9a.16.16,0,0,1,.21-.12l1.23.33a.16.16,0,0,1,.12.2l-1.23,4.6a.15.15,0,0,1-.2.12Z"/><path class="cls-1" d="M25.85,53.1a.17.17,0,0,1-.18.13L21,52.93l-.11.27-.21.54a.1.1,0,0,0,.06.13l4,1.57a.15.15,0,0,1,.1.21L24.32,57a.16.16,0,0,1-.21.1l-10.17-4a.15.15,0,0,1-.09-.22l.84-2.17c.75-1.92,2-2.76,4.31-1.87a3,3,0,0,1,2.18,2.33l5.12.23c.09,0,.16.06.13.14Zm-7.51-2.48c-1.23-.48-1.78-.22-2.15.73l-.22.56A.09.09,0,0,0,16,52l3,1.19a.09.09,0,0,0,.13-.06l.22-.56C19.8,51.66,19.59,51.1,18.34,50.62Z"/><path class="cls-1" d="M29.55,45.68c-.9,1.65-2.22,2-4,1.14a.15.15,0,0,1-.1-.2L26,45.25a.15.15,0,0,1,.22-.1c1.07.53,1.65.43,2-.25s.19-1.14-.89-1.73-1.52-.55-2.26.07l-.56.49c-1.31,1.12-2.25,1.15-3.79.31-1.7-.92-2.2-2.22-1.29-3.9s2.18-1.93,3.77-1.19a.19.19,0,0,1,.09.23l-.48,1.29c0,.1-.12.15-.2.1-.83-.41-1.43-.39-1.79.27s-.12,1.13.69,1.58,1.29.46,2-.18l.57-.49c1.24-1,2.22-1.2,3.9-.28C29.94,42.52,30.59,43.75,29.55,45.68Z"/><path class="cls-1" d="M24,33.18a.17.17,0,0,1,0-.24l.86-1.21a.16.16,0,0,1,.23,0L34,38a.16.16,0,0,1,0,.24l-.85,1.21a.17.17,0,0,1-.24,0Z"/><path class="cls-1" d="M28.82,26.89a.16.16,0,0,1,0-.24l1.83-1.95a2.6,2.6,0,0,1,3.24-.8,12.38,12.38,0,0,1,3,2.41,12.26,12.26,0,0,1,2.57,2.83,2.59,2.59,0,0,1-.61,3.28L37,34.37a.16.16,0,0,1-.24,0ZM37,32l.5-.53A1.13,1.13,0,0,0,37.78,30a10.53,10.53,0,0,0-2.19-2.35,11.36,11.36,0,0,0-2.47-2.06,1.15,1.15,0,0,0-1.43.34l-.51.53a.09.09,0,0,0,0,.14L36.89,32A.08.08,0,0,0,37,32Z"/><path class="cls-1" d="M39,17.51c0-.1,0-.19.06-.24l1.17-.83a.2.2,0,0,1,.25,0L48.78,24a.12.12,0,0,1,0,.21l-1.18.83a.17.17,0,0,1-.25,0l-1.68-1.59-1.88,1.32.92,2.12a.17.17,0,0,1-.06.24L43.44,28a.13.13,0,0,1-.2-.06Zm5.54,4.87-3.07-3,0,0,1.7,3.92Z"/><path class="cls-1" d="M48.11,12.15a.17.17,0,0,1,.1-.22L50.72,11a2.62,2.62,0,0,1,3.27.7,12.87,12.87,0,0,1,1.6,3.48,12.52,12.52,0,0,1,1.07,3.68,2.6,2.6,0,0,1-2,2.68l-2.51.93a.16.16,0,0,1-.22-.09Zm5.12,8.2.69-.25a1.14,1.14,0,0,0,.86-1.19,10.87,10.87,0,0,0-.93-3.08,11,11,0,0,0-1.31-2.93,1.14,1.14,0,0,0-1.44-.33l-.68.25c-.06,0-.09.07-.06.13L53.1,20.3A.08.08,0,0,0,53.23,20.35Z"/><path class="cls-1" d="M68.64,8.32a.16.16,0,0,1,.19-.15l2.65.33a2.59,2.59,0,0,1,2.57,2.13,12.43,12.43,0,0,1-.18,3.82,12.25,12.25,0,0,1-.75,3.76,2.6,2.6,0,0,1-3,1.45l-2.65-.33a.16.16,0,0,1-.15-.18ZM69.4,18l.72.09a1.15,1.15,0,0,0,1.32-.65A11.49,11.49,0,0,0,72,14.23,11.7,11.7,0,0,0,72.22,11a1.15,1.15,0,0,0-1.12-.95L70.37,10a.09.09,0,0,0-.11.08l-1,7.78C69.3,17.91,69.33,17.94,69.4,18Z"/><path class="cls-1" d="M81.3,11a.17.17,0,0,1,.22-.09l4.38,1.86A.15.15,0,0,1,86,13l-.5,1.18a.15.15,0,0,1-.22.08l-2.76-1.16a.08.08,0,0,0-.13,0l-1.16,2.72a.11.11,0,0,0,.06.14l2.38,1a.16.16,0,0,1,.1.22l-.5,1.17a.15.15,0,0,1-.22.09l-2.39-1a.09.09,0,0,0-.13.05l-1.2,2.84a.09.09,0,0,0,.06.13l2.76,1.16a.16.16,0,0,1,.09.22L81.73,23a.15.15,0,0,1-.22.08l-4.37-1.85A.16.16,0,0,1,77,21Z"/><path class="cls-1" d="M97.42,20.69a.16.16,0,0,1,.24,0l1.08,1a.16.16,0,0,1,0,.23l-6.44,6.82a.09.09,0,0,0,0,.14L94.5,31a.16.16,0,0,1,0,.24l-.87.93a.16.16,0,0,1-.24,0l-3.46-3.26a.16.16,0,0,1,0-.24Z"/><path class="cls-1" d="M97.1,33.88c.29-.44.57-.72,3.06-2.61S103,29.18,103.49,29a2.62,2.62,0,0,1,3.05,1.13,2.62,2.62,0,0,1,.26,3.23c-.29.43-.58.72-3.06,2.61s-2.84,2.09-3.33,2.26a2.63,2.63,0,0,1-3-1.11A2.63,2.63,0,0,1,97.1,33.88Zm2.63,2.67c.31-.11.42-.18,2.88-2s2.56-2,2.75-2.24a1,1,0,0,0-.09-1.15,1,1,0,0,0-1.1-.41c-.31.11-.43.18-2.89,2.05s-2.55,2-2.74,2.24a1,1,0,0,0,.1,1.16A1,1,0,0,0,99.73,36.55Z"/><path class="cls-1" d="M102.64,45.29c-.9-1.65-.51-3,1.19-4a.15.15,0,0,1,.22,0l.89,1.14a.15.15,0,0,1,0,.24c-1,.62-1.25,1.15-.87,1.84s.86.77,1.93.18,1.29-1,1.16-1.94l-.1-.74c-.24-1.7.24-2.5,1.78-3.35,1.69-.93,3-.65,4,1a2.55,2.55,0,0,1-1,3.82.18.18,0,0,1-.24,0l-.83-1.1c-.06-.08-.06-.18,0-.22.8-.48,1.1-1,.73-1.65s-.88-.72-1.69-.28-1.09.84-.95,1.81l.1.74c.22,1.61-.18,2.51-1.86,3.44C105.08,47.33,103.7,47.21,102.64,45.29Z"/><path class="cls-1" d="M119.29,55.71a.19.19,0,0,1,.21.12l.43,1.37a.19.19,0,0,1-.1.23l-9.67,5.63A.14.14,0,0,1,110,63l-.43-1.39a.17.17,0,0,1,.1-.22l2-1.13-.7-2.19-2.3.24a.16.16,0,0,1-.21-.13L108,56.78a.13.13,0,0,1,.11-.18ZM113,59.52l3.74-2,0,0-4.24.45Z"/><path class="cls-1" d="M121.82,64.73a.15.15,0,0,1,.19.13l.35,1.77a.22.22,0,0,1-.11.27L115,70.51l0,.08,7.62-1.5a.16.16,0,0,1,.2.13l.24,1.24a.16.16,0,0,1-.13.2l-10.7,2.11a.16.16,0,0,1-.2-.13L111.76,71c0-.14,0-.22.12-.27L119.07,67l0-.1-7.63,1.5a.15.15,0,0,1-.19-.13L111,67a.16.16,0,0,1,.13-.2Z"/><path class="cls-1" d="M123.8,76.34a.17.17,0,0,1,.18.16l.25,2.66a2.61,2.61,0,0,1-1.54,3,12.73,12.73,0,0,1-3.78.64,13,13,0,0,1-3.83.06A2.61,2.61,0,0,1,113,80.19l-.24-2.66a.16.16,0,0,1,.15-.19Zm-9.26,2.79.07.73a1.15,1.15,0,0,0,.91,1.15,11.93,11.93,0,0,0,3.22-.09,11.56,11.56,0,0,0,3.18-.5,1.15,1.15,0,0,0,.69-1.3l-.06-.73a.09.09,0,0,0-.11-.09l-7.81.72C114.56,79,114.53,79.06,114.54,79.13Z"/><path class="cls-1" d="M124.56,87.78a.16.16,0,0,1,.17.17l-.06,4.76a.16.16,0,0,1-.16.17l-1.28,0a.16.16,0,0,1-.16-.17l0-3c0-.07,0-.1-.1-.1l-3,0c-.06,0-.09,0-.09.1l0,2.59a.17.17,0,0,1-.17.17l-1.27,0a.16.16,0,0,1-.17-.17l0-2.59c0-.07,0-.1-.1-.1l-3.07,0c-.07,0-.1,0-.1.1l0,3a.16.16,0,0,1-.16.17l-1.28,0a.16.16,0,0,1-.16-.17l0-4.75a.16.16,0,0,1,.17-.17Z"/><path class="cls-1" d="M112.86,99.51q.26-2.81,3.2-2.61c.1,0,.16,0,.17.15l.1,1.45c0,.12-.07.18-.17.17-1.19-.06-1.68.25-1.76,1s.28,1.12,1.5,1.24,1.62-.09,2-1l.33-.67c.76-1.54,1.61-1.94,3.36-1.77,1.92.18,2.89,1.18,2.71,3.08s-1.24,2.63-3,2.57c-.1,0-.15-.06-.17-.17l-.07-1.37c0-.11,0-.19.15-.18.92,0,1.46-.2,1.53-1s-.33-1.09-1.25-1.18-1.37.08-1.8,1l-.33.67c-.71,1.46-1.56,2-3.47,1.8C113.74,102.57,112.66,101.69,112.86,99.51Z"/><path class="cls-1" d="M40.45,156.52c1.89-2.57,2.23-2.91,2.63-3.19a2.53,2.53,0,0,1,3.19.16,2.56,2.56,0,0,1,.65,3.89c-.05.1-.12.14-.22.1l-1.26-.64a.15.15,0,0,1-.07-.24c.54-.82.51-1.36,0-1.76a.86.86,0,0,0-1.13,0c-.23.17-.4.34-2.24,2.84s-1.95,2.71-2,3a.86.86,0,0,0,.37,1.07c.54.4,1.07.27,1.69-.49a.16.16,0,0,1,.25,0l1,1a.16.16,0,0,1,0,.24,2.57,2.57,0,0,1-3.91.53,2.53,2.53,0,0,1-1.11-3C38.34,159.51,38.56,159.09,40.45,156.52Z"/><path class="cls-1" d="M53.59,158.36a.15.15,0,0,1,.22-.1l1.41.52a.16.16,0,0,1,.11.22l-1.56,4.24a.08.08,0,0,0,.06.13l1.86.69a.1.1,0,0,0,.14-.06l1.56-4.24a.15.15,0,0,1,.22-.1l1.41.52a.15.15,0,0,1,.1.21l-3.84,10.45a.15.15,0,0,1-.22.1l-1.41-.52a.16.16,0,0,1-.1-.22l1.64-4.48a.08.08,0,0,0-.06-.13l-1.87-.69a.1.1,0,0,0-.13.06l-1.64,4.48a.16.16,0,0,1-.22.1L49.86,169a.16.16,0,0,1-.11-.22Z"/><path class="cls-1" d="M65.29,161.16a.16.16,0,0,1,.16-.18l1.51,0a.16.16,0,0,1,.18.16l.4,11.12a.16.16,0,0,1-.17.17l-1.5.06a.16.16,0,0,1-.18-.16Z"/><path class="cls-1" d="M73.43,159.88a.15.15,0,0,1,.1-.21l1.4-.54a.17.17,0,0,1,.23.1l3.4,8.94a.08.08,0,0,0,.13.05l2.84-1.08a.17.17,0,0,1,.23.1l.46,1.21a.17.17,0,0,1-.1.22l-4.51,1.71a.16.16,0,0,1-.22-.09Z"/><path class="cls-1" d="M83.73,155a.16.16,0,0,1,0-.24l4-2.75a.15.15,0,0,1,.23,0l.74,1.07a.17.17,0,0,1,0,.24l-2.5,1.73c-.06,0-.07.09,0,.14l1.72,2.48c0,.06.09.07.14,0l2.16-1.5a.16.16,0,0,1,.24,0l.74,1.07a.16.16,0,0,1,0,.24l-2.16,1.49a.1.1,0,0,0,0,.14l1.79,2.58c0,.06.09.07.14,0l2.5-1.73a.15.15,0,0,1,.24,0l.74,1.06a.16.16,0,0,1,0,.24l-4,2.74a.16.16,0,0,1-.24,0Z"/><path class="cls-1" d="M16.34,124.48a2.18,2.18,0,1,1,2.17,2.17,2.18,2.18,0,0,1-2.17-2.17"/><path class="cls-1" d="M116.07,124.48a2.18,2.18,0,1,0-2.18,2.17,2.18,2.18,0,0,0,2.18-2.17"/><path class="cls-1" d="M92.52,103.38l1.2,0a8,8,0,0,1,2.82.41l0,13.66h0l0,0a14.79,14.79,0,0,0-5.24-.93,11.67,11.67,0,0,0-4.08.67v-12.4c0-.37,1-1.41,5.36-1.41m-14,0c4.57,0,5.51,1.11,5.51,1.41v12.39a11.74,11.74,0,0,0-4.08-.66,14.87,14.87,0,0,0-5.27.93l0,0h0V103.8a7.81,7.81,0,0,1,2.81-.4l1.09,0m14-1c-5.82,0-6.4,1.79-6.4,2.45v12.77c0,.33,0,1,.41,1a1,1,0,0,0,.4-.12,9.78,9.78,0,0,1,4.31-.86,13.9,13.9,0,0,1,4.86.86c.56.28.66,1-.82,1H75.84c-1.49,0-1.39-.71-.81-1a13.66,13.66,0,0,1,4.88-.87,9.78,9.78,0,0,1,4.31.87,1,1,0,0,0,.42.13c.45,0,.39-.67.39-1V104.79c0-.67-.61-2.44-6.55-2.44H77.35c-3.77.14-3.81.88-3.81,1.4v15.63a1.09,1.09,0,0,0,1.13,1.19H96.49a1,1,0,0,0,1.07-1.14V103.76c0-.52,0-1.24-3.81-1.4l-1.24,0Z"/><path class="cls-1" d="M57.09,109.85c-.5-.45-8.13-7.59-8.16-7.61a2.58,2.58,0,0,0-1-.73,3.43,3.43,0,0,0-2.85,0,2.81,2.81,0,0,0-.94.69c-.08.08-7.71,7.22-8.22,7.67a2.8,2.8,0,0,0-.84,3.58,2,2,0,0,0,1.11.85,3.26,3.26,0,0,0,1.12,3.39,3,3,0,0,0,3,.28,4.2,4.2,0,0,0,.45,2.58,3.1,3.1,0,0,0,2.38,1.41,6.07,6.07,0,0,0,.71,0,2.9,2.9,0,0,0,2.59-1.27,3,3,0,0,0,2.43,1.12,4.71,4.71,0,0,0,.89-.09,3.33,3.33,0,0,0,2.39-1.58,3.66,3.66,0,0,0,.41-1.79,2.7,2.7,0,0,0,1.7.65,2.48,2.48,0,0,0,1.33-.4,3.12,3.12,0,0,0,1.54-2.09,3.66,3.66,0,0,0-.4-2.17,2.14,2.14,0,0,0,1.16-1A2.74,2.74,0,0,0,57.09,109.85Zm0,3.08a1.37,1.37,0,0,1-1,.61l-5.91-6.77a.49.49,0,0,0-.7,0,.5.5,0,0,0,0,.7l6,6.94a.61.61,0,0,0,.22.13,2.79,2.79,0,0,1,.49,1.88,2.12,2.12,0,0,1-1.09,1.42,1.51,1.51,0,0,1-.8.26c-1,0-1.8-1.11-2.06-1.55-.55-1.43-1.1-2.81-1.65-4.17-.64-1.59-1.28-3.18-1.93-4.86a.49.49,0,0,0-.64-.28.48.48,0,0,0-.28.63c.65,1.69,1.29,3.29,1.93,4.88.56,1.38,1.12,2.78,1.68,4.24a3.72,3.72,0,0,1,0,2.75,2.33,2.33,0,0,1-1.71,1.09,3.53,3.53,0,0,1-.7.07,2,2,0,0,1-2-1.27l-.13-11.75a.49.49,0,0,0-.49-.49h0a.49.49,0,0,0-.48.5L46,119l0,.44c0,.17-.28,1.8-2.59,1.48a2.14,2.14,0,0,1-1.66-.94,4.37,4.37,0,0,1-.07-3.13l.41-1.18c.85-2,2.2-5.26,3.22-7.65a.51.51,0,0,0-.27-.65.49.49,0,0,0-.64.26c-2.18,5.14-3.23,7.64-3.7,8.89a2.29,2.29,0,0,1-1.53.72,2.08,2.08,0,0,1-1.19-.42,2.49,2.49,0,0,1-.66-2.63.53.53,0,0,0,.15-.11l5.81-6.7a.5.5,0,1,0-.75-.65l-5.73,6.61a1,1,0,0,1-.79-.49c-.55-.84.17-1.85.67-2.3s7.93-7.39,8.28-7.73a2.34,2.34,0,0,1,.68-.5,2.48,2.48,0,0,1,1.95,0,2.12,2.12,0,0,1,.7.52c.31.3,7.72,7.23,8.22,7.68A1.81,1.81,0,0,1,57.08,112.93Z"/><path class="cls-1" d="M92.51,66.17a.45.45,0,0,1-.32-.14.43.43,0,0,1,0-.61,9.18,9.18,0,0,0,1.52-2,9.18,9.18,0,0,1,1.44-2,6.71,6.71,0,0,0-2.1.9,8.28,8.28,0,0,1-2.13,1,.43.43,0,0,1-.53-.31.44.44,0,0,1,.32-.53,7.4,7.4,0,0,0,1.9-.87,6.65,6.65,0,0,1,2.93-1.09.81.81,0,0,1,.78.3.73.73,0,0,1-.23,1,6.82,6.82,0,0,0-1.64,2.06,9.76,9.76,0,0,1-1.67,2.23A.48.48,0,0,1,92.51,66.17Z"/><path class="cls-1" d="M90.4,62.87l-.13,0A.45.45,0,0,1,90,62.3a9.19,9.19,0,0,0,.3-2.52,8.7,8.7,0,0,1,.27-2.41,6.85,6.85,0,0,0-1.37,1.83,8.32,8.32,0,0,1-1.36,1.9.44.44,0,0,1-.61-.63,7.27,7.27,0,0,0,1.22-1.71,6.8,6.8,0,0,1,2-2.41.84.84,0,0,1,.83-.12.72.72,0,0,1,.3.92,7,7,0,0,0-.4,2.65,9.7,9.7,0,0,1-.34,2.76A.44.44,0,0,1,90.4,62.87Z"/><path class="cls-1" d="M83.54,61.12h-.12a.44.44,0,0,1-.3-.54,8.34,8.34,0,0,0,.24-2.13,7,7,0,0,1,.57-3.14.82.82,0,0,1,.68-.51.71.71,0,0,1,.7.66A7,7,0,0,0,86.25,58a9.75,9.75,0,0,1,1,2.57A.43.43,0,0,1,87,61a.44.44,0,0,1-.52-.33,8.55,8.55,0,0,0-1-2.34,9.21,9.21,0,0,1-.94-2.25,6.92,6.92,0,0,0-.31,2.34A9.08,9.08,0,0,1,84,60.81.44.44,0,0,1,83.54,61.12Z"/><path class="cls-1" d="M80,63a.43.43,0,0,1-.42-.31,7.65,7.65,0,0,0-.91-1.89,6.8,6.8,0,0,1-1.15-2.91.85.85,0,0,1,.3-.79.72.72,0,0,1,1,.23,7,7,0,0,0,2.08,1.59,9.37,9.37,0,0,1,2.25,1.63.43.43,0,0,1,0,.61.42.42,0,0,1-.61,0,9,9,0,0,0-2.06-1.48,9,9,0,0,1-2-1.41,6.6,6.6,0,0,0,.94,2.09,9.05,9.05,0,0,1,1,2.1.45.45,0,0,1-.31.54Z"/><path class="cls-1" d="M77.84,66.29a.43.43,0,0,1-.31-.14,8,8,0,0,0-1.69-1.24,6.67,6.67,0,0,1-2.38-2,.85.85,0,0,1-.1-.84.72.72,0,0,1,1-.27,6.77,6.77,0,0,0,2.6.44,9.68,9.68,0,0,1,2.75.38.43.43,0,0,1,.28.55.44.44,0,0,1-.55.28,8.77,8.77,0,0,0-2.51-.34,8.73,8.73,0,0,1-2.41-.32,6.53,6.53,0,0,0,1.81,1.4,8.89,8.89,0,0,1,1.87,1.39.45.45,0,0,1,0,.62A.42.42,0,0,1,77.84,66.29Z"/><path class="cls-1" d="M77.78,70.2l-.12,0A8.07,8.07,0,0,0,75.57,70a6.57,6.57,0,0,1-3.07-.56.84.84,0,0,1-.52-.67.72.72,0,0,1,.67-.71,6.86,6.86,0,0,0,2.5-.94,9.75,9.75,0,0,1,2.57-1,.43.43,0,1,1,.18.85,8.87,8.87,0,0,0-2.34,1,9.3,9.3,0,0,1-2.24.94,6.58,6.58,0,0,0,2.27.3,8.86,8.86,0,0,1,2.31.26.44.44,0,0,1,.3.54A.45.45,0,0,1,77.78,70.2Z"/><path class="cls-1" d="M74.77,75.68a.76.76,0,0,1-.69-.32.73.73,0,0,1,.23-1,6.74,6.74,0,0,0,1.67-2,9.45,9.45,0,0,1,1.69-2.2.44.44,0,0,1,.62,0,.43.43,0,0,1,0,.61,8.87,8.87,0,0,0-1.54,2,9.58,9.58,0,0,1-1.46,1.94,6.93,6.93,0,0,0,2.11-.88,8.4,8.4,0,0,1,2.13-.94.43.43,0,1,1,.21.84,7.62,7.62,0,0,0-1.91.86,6.89,6.89,0,0,1-3,1.06Z"/><path class="cls-1" d="M79.4,80a.58.58,0,0,1-.28-.07.73.73,0,0,1-.29-.94,6.87,6.87,0,0,0,.42-2.64,9.64,9.64,0,0,1,.36-2.75.43.43,0,0,1,.55-.28.42.42,0,0,1,.28.54,9.22,9.22,0,0,0-.32,2.52,9.08,9.08,0,0,1-.29,2.41A6.69,6.69,0,0,0,81.21,77a8.32,8.32,0,0,1,1.38-1.88.44.44,0,0,1,.6.63A7.77,7.77,0,0,0,82,77.44a6.72,6.72,0,0,1-2,2.39A1,1,0,0,1,79.4,80Z"/><path class="cls-1" d="M85.83,81.39a.72.72,0,0,1-.72-.66,6.82,6.82,0,0,0-.93-2.51,9.3,9.3,0,0,1-1.05-2.57.43.43,0,0,1,.33-.51.44.44,0,0,1,.52.33,8.55,8.55,0,0,0,1,2.34,9.12,9.12,0,0,1,.93,2.25,6.59,6.59,0,0,0,.31-2.27,8.56,8.56,0,0,1,.26-2.32.43.43,0,0,1,.54-.29.45.45,0,0,1,.3.54,7.22,7.22,0,0,0-.23,2.08,6.87,6.87,0,0,1-.56,3.08c-.08.15-.3.51-.67.51Z"/><path class="cls-1" d="M92.11,79.33a.78.78,0,0,1-.62-.34,6.88,6.88,0,0,0-2.09-1.6,9.3,9.3,0,0,1-2.24-1.64.43.43,0,0,1,0-.61.44.44,0,0,1,.62,0,8.51,8.51,0,0,0,2,1.49,9,9,0,0,1,2,1.41A6.6,6.6,0,0,0,90.88,76a8.38,8.38,0,0,1-1-2.11.42.42,0,0,1,.3-.53.44.44,0,0,1,.54.3,7.34,7.34,0,0,0,.9,1.9,6.69,6.69,0,0,1,1.14,2.91.87.87,0,0,1-.3.79A.75.75,0,0,1,92.11,79.33Z"/><path class="cls-1" d="M96.43,74.62a.74.74,0,0,1-.36-.09,6.77,6.77,0,0,0-2.6-.44,10.08,10.08,0,0,1-2.75-.39.45.45,0,0,1-.28-.56.43.43,0,0,1,.55-.27,8.84,8.84,0,0,0,2.51.35,9.13,9.13,0,0,1,2.41.32,6.72,6.72,0,0,0-1.8-1.41,8.33,8.33,0,0,1-1.87-1.39.44.44,0,0,1,.64-.6,7.42,7.42,0,0,0,1.68,1.25,6.78,6.78,0,0,1,2.37,2,.87.87,0,0,1,.11.84A.7.7,0,0,1,96.43,74.62Z"/><path class="cls-1" d="M92.7,70.29a.45.45,0,0,1-.43-.35.43.43,0,0,1,.34-.51,9.22,9.22,0,0,0,2.34-1,9.21,9.21,0,0,1,2.25-.94,6.67,6.67,0,0,0-2.28-.3A9,9,0,0,1,92.61,67a.44.44,0,0,1,.25-.84,8,8,0,0,0,2.08.23,6.63,6.63,0,0,1,3.08.56c.15.08.51.3.51.67a.72.72,0,0,1-.66.71,6.67,6.67,0,0,0-2.51.94,9.75,9.75,0,0,1-2.57,1Z"/><path class="cls-1" d="M85.26,61.64a6.45,6.45,0,1,1-6.45,6.45,6.47,6.47,0,0,1,6.45-6.45m0-.91a7.36,7.36,0,1,0,7.36,7.36,7.36,7.36,0,0,0-7.36-7.36Z"/><path class="cls-1" d="M54.06,59.67a.29.29,0,1,1-.29-.29A.29.29,0,0,1,54.06,59.67Z"/><path class="cls-1" d="M51.89,63.59a.63.63,0,0,1-.65.64.65.65,0,1,1,0-1.29A.63.63,0,0,1,51.89,63.59Z"/><path class="cls-1" d="M31,78.35a1,1,0,0,1-.59-.19,1,1,0,0,1-.45-.72,1.11,1.11,0,0,1,.24-.82L42.16,61.05h0a7.83,7.83,0,0,1,.73-.94,2.85,2.85,0,0,1,2-1.06A3,3,0,0,1,47,60.25c.32.36,1.19,1.57,1.7,2.28.87-1.13,2.88-3.76,3.43-4.46a2.1,2.1,0,0,1,1.67-.93,2.14,2.14,0,0,1,1.34.52c1,.83,6.94,7.77,7.19,8.07a1.16,1.16,0,0,1-.81,1.87,1,1,0,0,1-.65-.28A10,10,0,0,0,55,65.12a6.5,6.5,0,0,0-3.8,1.17c1.47,2.2,7.35,10.09,7.41,10.18A1.06,1.06,0,0,1,58.43,78a1,1,0,0,1-.61.22,1.58,1.58,0,0,1-.82-.29h0a30.94,30.94,0,0,0-13.4-3.25,23.86,23.86,0,0,0-11.8,3.43A1.34,1.34,0,0,1,31,78.35ZM44.86,60a1.91,1.91,0,0,0-1.26.75,8.62,8.62,0,0,0-.65.83L31,77.22l0,.15a.53.53,0,0,0,.22-.08,24.31,24.31,0,0,1,12.35-3.6,31.23,31.23,0,0,1,13.93,3.4.7.7,0,0,0,.29.13s.09-.08,0-.16c-.28-.38-6.78-9.1-7.71-10.62L50,66.11l.26-.27A7.17,7.17,0,0,1,55,64.15a10.93,10.93,0,0,1,6.38,2.35l.11.08s0,0,.07,0,.1-.1,0-.16c-1.73-2-6.31-7.33-7.09-8a1.26,1.26,0,0,0-.73-.29,1.18,1.18,0,0,0-.9.55c-.71.9-3.83,5-3.83,5l-.4.53-.38-.55c-.44-.62-1.66-2.34-2-2.72A2.14,2.14,0,0,0,44.86,60Z"/><path class="cls-1" d="M50.9,63.94a.46.46,0,0,1-.29-.1.49.49,0,0,1-.1-.68l2.65-3.59a.49.49,0,1,1,.78.58l-2.65,3.59A.47.47,0,0,1,50.9,63.94Z"/><path class="cls-1" d="M37,72.58a.51.51,0,0,1-.39-.19.5.5,0,0,1,0-.6l7.73-10.1a.49.49,0,0,1,.68-.09.47.47,0,0,1,.09.68l-6.58,8.61,3.69-1.62a.49.49,0,0,1,.39.89l-5.42,2.38A.65.65,0,0,1,37,72.58Z"/></g></g></svg>